<svg width="600" height="720" viewBox="0 0 600 720" fill="none" xmlns="http://www.w3.org/2000/svg">
<g clip-path="url(#clip0_1252_2908)">
<rect width="600" height="720" fill="#F4693A"/>
<rect x="26" y="26" width="548" height="668" rx="6" stroke="white" stroke-width="12" stroke-linejoin="round"/>
<circle cx="52" cy="26" r="280" fill="#D32D26"/>
<path d="M280.645 41.2857H131.11C123.94 41.2857 118.082 35.4274 118.082 28.2571V27.1714C118.082 20.0012 123.94 14.1429 131.11 14.1429H211.657C218.827 14.1429 224.685 8.2845 224.685 1.11426V0.0285933C224.685 -7.14164 218.827 -13 211.657 -13H-88.7015C-95.8718 -13 -101.73 -7.14164 -101.73 0.0285933V1.11426C-101.73 8.2845 -95.8718 14.1429 -88.7015 14.1429H34.1653C41.3355 14.1429 47.1939 20.0012 47.1939 27.1714V28.2571C47.1939 35.4274 41.3355 41.2857 34.1653 41.2857H-168.999C-176.169 41.2857 -182.028 47.1441 -182.028 54.3143V55.4C-182.028 62.5702 -176.169 68.4286 -168.999 68.4286H-35.2301C-28.0598 68.4286 -22.2015 74.2869 -22.2015 81.4572V82.5428C-22.2015 89.7131 -28.0598 95.5714 -35.2301 95.5714H-301.411C-308.581 95.5714 -314.439 101.43 -314.439 108.6V109.686C-314.439 116.856 -308.581 122.714 -301.411 122.714H-87.1407C-79.9704 122.714 -74.1121 128.573 -74.1121 135.743V136.829C-74.1121 143.999 -79.9704 149.857 -87.1407 149.857H-98.4276C-105.598 149.857 -111.456 155.715 -111.456 162.886V163.971C-111.456 171.142 -105.598 177 -98.4276 177H26.4295C33.5997 177 39.4581 171.142 39.4581 163.971V162.886C39.4581 155.715 33.5997 149.857 26.4295 149.857H-7.13711C-14.3073 149.857 -20.1657 143.999 -20.1657 136.829V135.743C-20.1657 128.573 -14.3073 122.714 -7.13711 122.714H122.99C130.16 122.714 136.019 116.856 136.019 109.686V108.6C136.019 101.43 130.16 95.5714 122.99 95.5714H61.7604C54.5902 95.5714 48.7318 89.7131 48.7318 82.5428V81.4572C48.7318 74.2869 54.5902 68.4286 61.7604 68.4286H280.69C287.861 68.4286 293.719 62.5702 293.719 55.4V54.3143C293.719 47.1441 287.861 41.2857 280.69 41.2857H280.645Z" fill="url(#paint0_linear_1252_2908)"/>
<path d="M745.026 602.719H608.07C601.503 602.719 596.138 597.354 596.138 590.787V589.792C596.138 583.225 601.503 577.86 608.07 577.86H681.841C688.408 577.86 693.774 572.494 693.774 565.927V564.933C693.774 558.366 688.408 553 681.841 553H406.749C400.182 553 394.816 558.366 394.816 564.933V565.927C394.816 572.494 400.182 577.86 406.749 577.86H519.28C525.847 577.86 531.213 583.225 531.213 589.792V590.787C531.213 597.354 525.847 602.719 519.28 602.719H333.206C326.639 602.719 321.273 608.085 321.273 614.652V615.646C321.273 622.213 326.639 627.579 333.206 627.579H455.722C462.289 627.579 467.655 632.944 467.655 639.511V640.506C467.655 647.073 462.289 652.438 455.722 652.438H211.933C205.366 652.438 200 657.804 200 664.371V665.365C200 671.932 205.366 677.298 211.933 677.298H408.178C414.745 677.298 420.111 682.664 420.111 689.231V690.225C420.111 696.792 414.745 702.158 408.178 702.158H397.841C391.274 702.158 385.908 707.523 385.908 714.09V715.085C385.908 721.652 391.274 727.017 397.841 727.017H512.195C518.762 727.017 524.128 721.652 524.128 715.085V714.09C524.128 707.523 518.762 702.158 512.195 702.158H481.452C474.885 702.158 469.519 696.792 469.519 690.225V689.231C469.519 682.664 474.885 677.298 481.452 677.298H600.633C607.2 677.298 612.566 671.932 612.566 665.365V664.371C612.566 657.804 607.2 652.438 600.633 652.438H544.554C537.987 652.438 532.621 647.073 532.621 640.506V639.511C532.621 632.944 537.987 627.579 544.554 627.579H745.067C751.634 627.579 757 622.213 757 615.646V614.652C757 608.085 751.634 602.719 745.067 602.719H745.026Z" fill="url(#paint1_linear_1252_2908)"/>
<path d="M311.419 543.1L303.207 608.84L332.162 615.134L492.609 587.851L311.419 543.1Z" fill="#6F7D85"/>
<path d="M116.767 499C130.981 504.272 493.687 602.042 590.862 620.115C688.037 638.188 717.418 631.412 712.897 622.37C708.376 613.328 665.88 580.513 568.257 543.268C568.257 543.268 260.465 427.818 177.291 418.967C112.773 412.101 81.1145 443.76 75.6623 452.488C70.2101 461.216 76.7504 484.135 116.767 498.977V499Z" fill="#CDDFEC"/>
<path d="M116.767 499C130.981 504.272 493.687 602.042 590.862 620.115C688.037 638.188 717.418 631.412 712.897 622.37C708.376 613.328 665.88 580.513 568.257 543.268C568.257 543.268 260.465 427.818 177.291 418.967C112.773 412.101 81.1145 443.76 75.6623 452.488C70.2101 461.216 76.7504 484.135 116.767 498.977V499Z" fill="#CDDFEC"/>
<path d="M360.714 514.717C360.714 514.717 450.272 559.726 550.543 577.99L670.357 490.205L629.679 476.641L360.703 514.706L360.714 514.717Z" fill="#6F7D85"/>
<path d="M421.755 629.724C427.007 626.591 428.726 619.795 425.594 614.542C422.461 609.29 415.665 607.571 410.412 610.704C405.16 613.836 403.441 620.633 406.574 625.885C409.706 631.137 416.503 632.856 421.755 629.724Z" fill="#6F7D85"/>
<path d="M429.202 572.571H421.416V631.311H429.202V572.571Z" fill="#6F7D85"/>
<path d="M442.374 629.089C443.89 623.165 440.317 617.133 434.393 615.616C428.469 614.1 422.437 617.673 420.92 623.597C419.403 629.521 422.976 635.553 428.901 637.07C434.825 638.587 440.857 635.014 442.374 629.089Z" fill="#6F7D85"/>
<path d="M298.035 576.015C293.547 592.618 294.68 607.359 300.559 608.952C343.885 620.665 384.215 631.188 392.248 601.481C400.28 571.774 360.129 560.544 316.803 548.844C310.925 547.25 302.511 559.423 298.023 576.026L298.035 576.015Z" fill="#CDDFEC"/>
<path d="M318.452 581.534L301.726 565.278C300.334 568.543 299.078 572.155 298.035 576.014C293.547 592.618 294.68 607.359 300.559 608.952C343.885 620.664 384.215 631.187 392.248 601.481C392.259 601.424 392.27 601.38 392.281 601.323L318.452 581.534Z" fill="#88A2B1"/>
<path d="M318.453 581.535C314.65 595.591 308.536 606.159 304.789 605.15C301.042 604.14 301.075 591.923 304.878 577.866C308.681 563.809 314.795 553.241 318.542 554.251C322.289 555.261 322.256 567.478 318.453 581.535Z" fill="#6F7D85"/>
<path d="M590.863 620.115C660.654 633.094 695.465 633.263 707.883 628.977C605.885 601.525 174.656 485.358 123.69 469.966C100.232 462.887 84.5035 460.654 74.0703 460.497C74.979 471.334 85.9395 487.568 116.768 498.999C130.982 504.272 493.688 602.042 590.863 620.115Z" fill="#6F7D85"/>
<path d="M389.862 530.546C385.038 548.372 386.261 564.213 392.577 565.918C439.111 578.494 482.437 589.802 491.064 557.897C499.691 525.98 456.567 513.931 410.033 501.355C403.717 499.65 394.686 512.72 389.862 530.546Z" fill="#CDDFEC"/>
<path d="M411.794 536.469L393.833 519.001C392.341 522.513 390.984 526.383 389.862 530.534C385.038 548.36 386.261 564.201 392.577 565.906C439.111 578.482 482.437 589.79 491.064 557.885C491.076 557.829 491.087 557.773 491.098 557.717L411.794 536.457V536.469Z" fill="#88A2B1"/>
<path d="M411.794 536.469C407.71 551.569 401.136 562.922 397.109 561.834C393.081 560.746 393.126 547.62 397.21 532.52C401.293 517.42 407.867 506.067 411.895 507.155C415.922 508.243 415.877 521.369 411.794 536.469Z" fill="#6F7D85"/>
<path d="M121.5 440.495L156.424 448.135L153.148 435.031L122.589 429.579L106.12 429.052C100.073 431.868 94.9237 434.953 90.6719 437.993L121.489 440.506L121.5 440.495Z" fill="#6F7D85"/>
<path d="M203.677 450.334L197.182 448.236L194.512 436.344L201.007 438.442L203.677 450.334Z" fill="#88A2B1"/>
<path d="M215.097 453.52L208.602 451.422L205.932 439.53L212.427 441.628L215.097 453.52Z" fill="#88A2B1"/>
<path d="M226.506 456.717L220.01 454.619L217.352 442.727L223.847 444.825L226.506 456.717Z" fill="#88A2B1"/>
<path d="M237.927 459.903L231.432 457.805L228.762 445.913L235.257 448.011L237.927 459.903Z" fill="#88A2B1"/>
<path d="M249.349 463.1L242.854 461.002L240.184 449.111L246.679 451.208L249.349 463.1Z" fill="#88A2B1"/>
<path d="M260.758 466.286L254.262 464.188L251.604 452.297L258.099 454.394L260.758 466.286Z" fill="#88A2B1"/>
<path d="M272.177 469.484L265.682 467.386L263.012 455.494L269.507 457.592L272.177 469.484Z" fill="#88A2B1"/>
<path d="M307.314 479.547L300.818 477.449L298.148 465.557L304.644 467.655L307.314 479.547Z" fill="#88A2B1"/>
<path d="M318.723 482.744L312.227 480.646L309.568 468.743L316.064 470.852L318.723 482.744Z" fill="#88A2B1"/>
<path d="M330.144 485.93L323.649 483.832L320.979 471.94L327.474 474.038L330.144 485.93Z" fill="#88A2B1"/>
<path d="M341.564 489.127L335.068 487.029L332.398 475.126L338.894 477.236L341.564 489.127Z" fill="#88A2B1"/>
<path d="M352.975 492.313L346.479 490.216L343.82 478.324L350.316 480.422L352.975 492.313Z" fill="#88A2B1"/>
<path d="M364.394 495.51L357.899 493.413L355.229 481.51L361.724 483.619L364.394 495.51Z" fill="#88A2B1"/>
<path d="M375.814 498.697L369.318 496.599L366.648 484.707L373.144 486.805L375.814 498.697Z" fill="#88A2B1"/>
<path d="M483.378 622.157C490.206 622.157 495.741 616.622 495.741 609.794C495.741 602.966 490.206 597.431 483.378 597.431C476.551 597.431 471.016 602.966 471.016 609.794C471.016 616.622 476.551 622.157 483.378 622.157Z" fill="#6F7D85"/>
<path d="M498.03 622.168H489.336V575.476L498.03 578.786V622.168Z" fill="#6F7D85"/>
<path d="M500.777 629.022C507.605 629.022 513.14 623.487 513.14 616.659C513.14 609.832 507.605 604.297 500.777 604.297C493.949 604.297 488.414 609.832 488.414 616.659C488.414 623.487 493.949 629.022 500.777 629.022Z" fill="#6F7D85"/>
<rect x="81" y="79.5" width="439" height="58" rx="4" fill="#FFEC8C"/>
<path d="M125.273 96.772H133.561V100.228H125.273V96.772ZM125.273 104.004H133.561V107.364H125.273V104.004ZM125.273 111.3H133.593V114.724H125.273V111.3ZM131.897 96.772H135.609V121.156C135.609 123.012 135.257 124.068 134.105 124.644C132.985 125.252 131.353 125.348 128.953 125.348C128.857 124.324 128.345 122.66 127.865 121.7C129.241 121.764 130.809 121.764 131.257 121.732C131.737 121.732 131.897 121.572 131.897 121.092V96.772ZM123.705 96.772H127.289V108.516C127.289 113.572 126.873 120.9 124.153 125.444C123.513 124.772 121.945 123.652 121.113 123.268C123.513 119.172 123.705 113.092 123.705 108.516V96.772ZM106.937 99.108H122.617V102.436H106.937V99.108ZM111.129 104.324H118.745V107.268H111.129V104.324ZM111.129 109.316H118.777V112.228H111.129V109.316ZM106.553 114.372H122.393V117.732H106.553V114.372ZM109.465 95.684H112.921V115.588H109.465V95.684ZM116.921 95.684H120.441V115.588H116.921V95.684ZM110.553 117.956L114.169 119.012C112.985 121.38 111.097 123.876 109.401 125.444C108.665 124.804 107.193 123.716 106.297 123.204C108.025 121.892 109.657 119.908 110.553 117.956ZM115.289 119.396L118.201 117.796C119.481 119.204 121.113 121.156 121.849 122.468L118.745 124.292C118.105 123.012 116.569 120.9 115.289 119.396ZM149.209 114.852H157.977V117.604H149.209V114.852ZM148.985 110.116H159.769V122.404H148.985V119.588H156.185V112.932H148.985V110.116ZM147.417 110.116H150.873V124.036H147.417V110.116ZM142.041 100.996H150.073V103.588H142.041V100.996ZM156.889 100.996H164.985V103.588H156.889V100.996ZM163.417 96.548H167.289V120.836C167.289 122.916 166.873 124.036 165.593 124.676C164.313 125.316 162.457 125.38 159.705 125.38C159.545 124.292 158.969 122.5 158.457 121.476C160.121 121.572 162.073 121.54 162.649 121.54C163.225 121.54 163.417 121.348 163.417 120.804V96.548ZM142.361 96.548H152.473V108.164H142.361V105.412H148.889V99.332H142.361V96.548ZM165.465 96.548V99.332H158.297V105.508H165.465V108.26H154.649V96.548H165.465ZM140.153 96.548H143.961V125.38H140.153V96.548ZM185.785 102.628H196.825V105.764H185.785V102.628ZM180.281 121.156C183.193 120.74 187.673 119.94 191.961 119.172L192.249 122.5C188.537 123.364 184.601 124.228 181.561 124.9L180.281 121.156ZM183.609 96.772H187.353V122.052H183.609V96.772ZM185.785 96.772H198.553V111.716H185.785V108.42H194.777V100.068H185.785V96.772ZM192.473 109.54C193.625 115.236 196.089 119.972 200.793 122.052C199.961 122.788 198.841 124.292 198.297 125.284C193.145 122.564 190.649 117.124 189.273 110.052L192.473 109.54ZM197.081 111.94L200.089 114.052C198.329 115.716 196.281 117.508 194.681 118.66L192.281 116.804C193.817 115.556 195.897 113.54 197.081 111.94ZM171.961 96.708H179.961V100.132H175.545V125.412H171.961V96.708ZM178.905 96.708H179.577L180.121 96.58L182.713 98.084C181.849 100.868 180.697 104.42 179.705 106.916C181.817 109.412 182.233 111.62 182.233 113.476C182.233 115.62 181.753 116.964 180.697 117.7C180.185 118.084 179.545 118.308 178.809 118.404C178.201 118.5 177.369 118.5 176.601 118.468C176.569 117.508 176.281 116.004 175.737 115.044C176.345 115.108 176.793 115.108 177.209 115.108C177.561 115.076 177.881 115.012 178.169 114.82C178.585 114.532 178.745 113.892 178.745 112.996C178.745 111.492 178.265 109.508 176.377 107.332C177.305 104.452 178.393 99.908 178.905 97.86V96.708ZM208.761 104.996H226.457V108.644H208.761V104.996ZM217.593 112.676H228.409V116.26H217.593V112.676ZM215.577 107.108H219.609V122.564L215.577 122.084V107.108ZM207.929 110.436L211.961 110.852C211.129 117.348 209.145 122.436 205.497 125.572C204.857 124.9 203.225 123.524 202.329 122.948C205.785 120.388 207.385 115.94 207.929 110.436ZM211.033 114.436C213.081 120.324 217.561 121.22 223.257 121.22C224.953 121.22 230.297 121.22 232.441 121.156C231.897 122.052 231.257 123.908 231.097 125.06H223.033C215.641 125.06 210.649 123.556 207.897 115.492L211.033 114.436ZM215.513 95.364H219.609V101.22H215.513V95.364ZM203.865 98.596H231.385V106.628H227.417V102.244H207.641V106.628H203.865V98.596ZM249.625 106.276C251.865 106.276 253.689 108.1 253.689 110.34C253.689 112.612 251.865 114.436 249.625 114.436C247.353 114.436 245.529 112.612 245.529 110.34C245.529 108.1 247.353 106.276 249.625 106.276ZM266.265 111.716C269.113 111.108 273.337 110.052 277.337 109.06L277.785 112.516C274.137 113.54 270.265 114.596 267.225 115.396L266.265 111.716ZM266.745 101.38H277.401V104.932H266.745V101.38ZM270.617 95.332H274.329V121.38C274.329 123.172 273.977 124.132 272.921 124.708C271.865 125.284 270.329 125.38 268.089 125.38C267.993 124.42 267.513 122.884 267.033 121.924C268.281 121.956 269.593 121.956 270.009 121.956C270.457 121.956 270.617 121.796 270.617 121.348V95.332ZM278.137 102.5H295.993V125.124H292.153V106.148H281.785V125.316H278.137V102.5ZM280.441 110.756H293.209V114.34H280.441V110.756ZM280.537 119.332H293.337V123.012H280.537V119.332ZM285.081 95.396H288.697V121.572H285.081V95.396ZM305.689 107.812V119.588H302.105V111.364H298.777V107.812H305.689ZM305.689 118.116C306.937 120.292 309.273 121.22 312.569 121.38C316.537 121.54 324.409 121.444 328.953 121.092C328.537 121.924 327.961 123.62 327.801 124.676C323.705 124.868 316.601 124.932 312.601 124.772C308.697 124.612 306.073 123.652 304.153 121.156C302.937 122.436 301.657 123.652 300.153 125.092L298.329 121.412C299.609 120.516 301.145 119.3 302.489 118.116H305.689ZM298.585 97.988L301.593 96.068C303.289 97.604 305.273 99.78 306.137 101.348L302.873 103.492C302.137 101.956 300.217 99.62 298.585 97.988ZM307.641 108.42H327.257V111.204H307.641V108.42ZM306.681 113.348H328.249V116.196H306.681V113.348ZM311.897 106.724H315.513V114.724H311.897V106.724ZM319.225 106.724H322.873V114.724H319.225V106.724ZM308.505 100.068H313.177V98.724H307.097V96.324H316.409V102.5H308.505V100.068ZM307.545 100.068H310.713V103.172C310.713 103.844 310.841 103.972 311.673 103.972C312.025 103.972 313.657 103.972 314.137 103.972C314.777 103.972 314.905 103.78 315.033 102.724C315.609 103.14 316.825 103.556 317.689 103.716C317.369 105.892 316.505 106.5 314.553 106.5C313.945 106.5 311.801 106.5 311.193 106.5C308.345 106.5 307.545 105.764 307.545 103.204V100.068ZM319.033 100.068H323.737V98.724H317.497V96.324H327.001V102.5H319.033V100.068ZM318.073 100.068H321.241V103.172C321.241 103.844 321.401 103.972 322.233 103.972C322.617 103.972 324.313 103.972 324.793 103.972C325.465 103.972 325.593 103.78 325.721 102.692C326.297 103.108 327.513 103.492 328.377 103.684C328.057 105.892 327.193 106.5 325.209 106.5C324.601 106.5 322.361 106.5 321.753 106.5C318.873 106.5 318.073 105.764 318.073 103.172V100.068ZM318.681 117.54L321.497 115.972C323.801 117.028 326.617 118.564 328.217 119.652L324.249 121.092C323.065 120.068 320.793 118.628 318.681 117.54ZM313.081 115.972L316.441 117.156C314.777 118.692 312.089 120.164 309.881 121.06C309.273 120.42 307.897 119.268 307.097 118.756C309.337 118.084 311.705 117.06 313.081 115.972ZM331.833 100.58C333.081 100.548 334.361 100.484 334.969 100.42C337.625 100.164 342.905 99.716 348.761 99.204C352.089 98.948 355.577 98.724 357.849 98.628L357.881 102.756C356.153 102.756 353.401 102.788 351.673 103.172C347.833 104.196 344.921 108.356 344.921 112.164C344.921 117.412 349.849 119.332 355.257 119.588L353.753 123.972C347.065 123.556 340.729 119.94 340.729 112.996C340.729 108.42 343.321 104.772 345.465 103.14C342.489 103.46 335.929 104.164 332.249 104.964L331.833 100.58ZM353.305 105.892C354.073 107.012 355.225 108.964 355.833 110.244L353.433 111.3C352.601 109.572 351.929 108.292 350.937 106.884L353.305 105.892ZM356.857 104.42C357.689 105.54 358.905 107.428 359.577 108.676L357.177 109.828C356.313 108.1 355.577 106.884 354.553 105.476L356.857 104.42ZM370.457 122.948C366.713 122.948 364.217 121.476 362.425 119.716L364.633 116.74C365.945 118.052 367.641 119.14 369.817 119.14C372.313 119.14 374.009 117.572 374.009 114.756C374.009 112.004 372.409 110.468 370.041 110.468C368.633 110.468 367.865 110.82 366.489 111.716L364.313 110.308L364.985 98.82H377.657V102.756H369.049L368.601 107.78C369.529 107.364 370.361 107.14 371.449 107.14C375.417 107.14 378.745 109.476 378.745 114.66C378.745 119.908 374.809 122.948 370.457 122.948ZM389.94 122.948C385.108 122.948 381.908 118.756 381.908 110.564C381.908 102.404 385.108 98.404 389.94 98.404C394.74 98.404 397.94 102.404 397.94 110.564C397.94 118.756 394.74 122.948 389.94 122.948ZM389.94 119.268C391.988 119.268 393.492 117.22 393.492 110.564C393.492 103.94 391.988 102.02 389.94 102.02C387.892 102.02 386.356 103.94 386.356 110.564C386.356 117.22 387.892 119.268 389.94 119.268ZM411.567 120.644H425.903V124.132H411.567V120.644ZM409.967 98.468H421.295V101.86H409.967V98.468ZM410.799 95.14L415.119 96.004C412.399 100.676 408.559 104.964 402.799 108.42C402.255 107.46 400.975 106.052 400.111 105.38C405.391 102.596 408.943 98.692 410.799 95.14ZM420.079 98.468H420.815L421.455 98.276L424.111 99.684C420.367 109.636 411.823 116.164 402.287 119.364C401.807 118.308 400.847 116.74 400.047 115.94C408.879 113.38 417.135 107.172 420.079 99.108V98.468ZM405.775 105.508L408.623 103.012C410.831 104.58 413.743 106.852 415.151 108.516L412.047 111.3C410.831 109.636 407.983 107.172 405.775 105.508ZM424.111 110.884H428.111V125.412H424.111V110.884ZM413.199 110.884H426.031V114.372H413.199V125.348H409.359V113.732L412.271 110.884H413.199ZM444.079 98.884H461.647V101.924H444.079V98.884ZM444.943 103.172H460.975V106.052H444.943V103.172ZM443.471 107.428H462.223V110.564H443.471V107.428ZM456.399 95.268L460.207 96.196C459.343 97.636 458.479 99.044 457.839 99.972L454.831 99.108C455.407 97.988 456.079 96.388 456.399 95.268ZM446.127 96.388L449.135 95.396C449.871 96.484 450.671 97.956 450.959 98.948L447.759 100.1C447.503 99.108 446.799 97.54 446.127 96.388ZM459.183 111.172L462.063 113.22C460.655 114.692 458.959 116.26 457.679 117.284L455.215 115.396C456.463 114.34 458.191 112.516 459.183 111.172ZM444.079 112.996L446.703 111.268C447.855 112.452 449.263 114.084 449.903 115.204L447.151 117.124C446.575 115.972 445.231 114.244 444.079 112.996ZM442.223 120.228C444.143 119.364 446.959 117.924 449.711 116.516L450.703 119.62C448.463 120.932 445.935 122.34 443.887 123.46L442.223 120.228ZM451.023 100.932H454.703V121.572C454.703 123.3 454.415 124.228 453.391 124.804C452.335 125.38 450.799 125.444 448.783 125.444C448.687 124.452 448.239 122.948 447.791 122.052C448.879 122.084 450.127 122.084 450.511 122.084C450.895 122.084 451.023 121.924 451.023 121.572V100.932ZM454.511 111.172C455.919 115.46 458.735 119.14 462.831 120.804C462.063 121.508 460.943 122.916 460.399 123.908C456.239 121.604 453.519 117.124 452.015 111.748L454.511 111.172ZM432.783 101.956H443.375V105.508H432.783V101.956ZM436.687 95.332H440.175V125.38H436.687V95.332ZM436.623 104.388L438.767 105.124C437.839 110.18 436.015 116.356 433.743 119.652C433.423 118.628 432.591 117.156 432.047 116.26C434.095 113.476 435.887 108.452 436.623 104.388ZM440.015 106.724C440.719 107.588 443.343 111.62 443.887 112.516L441.903 115.268C441.199 113.412 439.279 109.764 438.415 108.26L440.015 106.724ZM477.711 114.276L476.879 103.332L476.719 98.564H481.999L481.839 103.332L481.007 114.276H477.711ZM479.375 122.82C477.711 122.82 476.527 121.636 476.527 119.972C476.527 118.308 477.743 117.156 479.375 117.156C480.975 117.156 482.191 118.308 482.191 119.972C482.191 121.636 480.975 122.82 479.375 122.82Z" fill="#1E0E05"/>
<g filter="url(#filter0_d_1252_2908)">
<path d="M80.632 190.5L91.258 156.23H101.102L111.728 190.5H103.08L98.802 173.388C97.882 169.984 97.008 165.89 96.088 162.394H95.904C95.076 165.982 94.156 169.984 93.282 173.388L89.004 190.5H80.632ZM87.854 182.634V176.286H104.414V182.634H87.854ZM114.679 190.5V164.326H121.349L121.947 167.638H122.085C124.247 165.476 126.501 163.682 130.043 163.682C133.677 163.682 135.885 165.2 137.219 168.006C139.473 165.706 141.911 163.682 145.407 163.682C151.111 163.682 153.595 167.776 153.595 174.308V190.5H145.407V175.32C145.407 171.686 144.487 170.674 142.417 170.674C141.221 170.674 139.795 171.41 138.231 173.02V190.5H130.043V175.32C130.043 171.686 129.077 170.674 127.007 170.674C125.811 170.674 124.385 171.41 122.867 173.02V190.5H114.679ZM166.629 191.144C161.799 191.144 158.855 187.556 158.855 183.186C158.855 177.666 163.179 174.676 173.391 173.572C173.207 171.456 172.103 170.214 169.435 170.214C167.365 170.214 165.203 171.042 162.581 172.514L159.729 167.132C163.179 165.062 166.905 163.682 170.999 163.682C177.761 163.682 181.579 167.454 181.579 175.642V190.5H174.909L174.357 187.878H174.127C171.965 189.81 169.527 191.144 166.629 191.144ZM169.435 184.796C171.091 184.796 172.195 184.014 173.391 182.726V178.54C168.285 179.184 166.629 180.702 166.629 182.542C166.629 184.06 167.733 184.796 169.435 184.796ZM186.614 190.5V186.13L197.24 170.72H187.81V164.326H207.452V168.696L196.826 184.106H207.82V190.5H186.614ZM222.893 191.144C216.223 191.144 210.059 186.084 210.059 177.39C210.059 168.742 216.223 163.682 222.893 163.682C229.517 163.682 235.681 168.742 235.681 177.39C235.681 186.084 229.517 191.144 222.893 191.144ZM222.893 184.52C225.929 184.52 227.309 181.76 227.309 177.39C227.309 173.066 225.929 170.306 222.893 170.306C219.811 170.306 218.431 173.066 218.431 177.39C218.431 181.76 219.811 184.52 222.893 184.52ZM240.82 190.5V164.326H247.49L248.088 167.592H248.226C250.388 165.476 253.056 163.682 256.598 163.682C262.302 163.682 264.74 167.776 264.74 174.308V190.5H256.552V175.32C256.552 171.686 255.586 170.674 253.516 170.674C251.676 170.674 250.572 171.502 249.008 173.02V190.5H240.82ZM299.999 155.64C301.049 157.194 302.519 159.924 303.275 161.394L299.285 163.074C298.403 161.352 297.185 158.874 296.051 157.236L299.999 155.64ZM305.165 153.624C306.257 155.22 307.769 157.908 308.483 159.336L304.535 161.016C303.695 159.294 302.351 156.816 301.217 155.22L305.165 153.624ZM281.897 161.1C281.603 159.84 281.309 158.79 280.973 157.74L288.155 156.606C288.281 157.446 288.407 159 288.617 160.05C289.121 163.326 292.985 183.57 294.035 188.694C294.329 189.954 294.749 191.508 295.127 192.978L287.819 194.238C287.609 192.6 287.525 191.088 287.273 189.828C286.517 185.376 282.695 165.174 281.897 161.1ZM270.641 166.056C272.111 165.972 273.455 165.888 274.757 165.72C278.243 165.3 293.027 163.032 296.681 162.318C298.067 162.066 299.957 161.646 301.133 161.31L302.351 167.946C301.259 168.03 299.327 168.324 297.983 168.492C293.447 169.206 278.915 171.516 276.101 172.02C274.673 172.314 273.539 172.566 271.985 172.986L270.641 166.056ZM270.767 178.488C271.943 178.446 274.043 178.194 275.471 177.984C279.965 177.312 295.127 174.918 299.873 173.994C301.511 173.658 303.275 173.238 304.493 172.902L305.837 179.58C304.577 179.664 302.645 180 301.049 180.252C295.883 181.05 280.763 183.528 276.647 184.326C274.757 184.662 273.161 184.956 272.195 185.208L270.767 178.488ZM347.795 162.528C347.333 163.452 346.955 164.964 346.703 165.888C345.695 169.836 343.973 176.22 340.361 181.092C336.581 186.174 330.659 190.5 323.267 192.894L317.723 186.804C326.165 184.914 330.911 181.218 334.229 177.102C336.917 173.784 338.303 169.626 338.849 166.266C336.245 166.266 323.939 166.266 320.369 166.266C318.311 166.266 316.001 166.392 314.909 166.476V159.294C316.211 159.462 318.983 159.672 320.369 159.672C323.939 159.672 336.287 159.672 338.891 159.672C339.815 159.672 341.453 159.63 342.755 159.294L347.795 162.528ZM364.427 186.3C364.427 182.604 364.427 165.888 364.427 162.318C364.427 160.638 364.259 158.454 363.923 156.858H371.861C371.693 158.454 371.441 160.302 371.441 162.318C371.441 165.888 371.441 182.562 371.441 186.3C371.441 187.434 371.693 190.752 371.903 192.642H363.923C364.217 190.836 364.427 188.022 364.427 186.3ZM369.929 167.652C375.557 169.164 384.923 172.524 388.787 174.414L385.889 181.512C381.143 179.076 374.507 176.556 369.929 175.002V167.652ZM416.717 156.438C416.591 157.446 416.465 159.378 416.423 160.386C415.961 176.85 412.433 185.712 402.563 192.81L396.641 188.022C398.615 186.93 400.925 185.376 402.857 183.36C408.485 177.522 409.577 170.34 409.577 160.512C409.577 159.588 409.409 157.446 409.241 156.438H416.717ZM430.787 165.594C430.661 166.266 430.493 167.484 430.493 167.904C430.325 172.734 429.779 184.2 428.015 188.61C427.091 190.92 425.327 192.222 422.135 192.222C419.531 192.222 417.011 192.012 415.037 191.844L414.239 185.04C416.213 185.418 418.355 185.67 419.951 185.67C421.379 185.67 421.841 185.166 422.261 184.116C423.269 181.806 423.857 174.498 423.857 169.92H404.285C402.983 169.92 400.295 169.962 398.363 170.13V163.494C400.295 163.704 402.689 163.83 404.285 163.83H422.975C424.025 163.83 425.285 163.704 426.461 163.494L430.787 165.594ZM439.397 170.34C441.077 170.466 444.605 170.634 446.663 170.634C452.669 170.634 464.849 170.634 468.965 170.634C470.855 170.634 472.913 170.424 474.131 170.34V178.362C473.039 178.32 470.687 178.11 468.965 178.11C464.807 178.11 452.627 178.11 446.663 178.11C444.269 178.11 441.119 178.236 439.397 178.362V170.34ZM507.017 158.664C508.277 160.554 509.915 163.158 510.839 165.048L506.513 166.938C505.169 164.04 504.455 162.738 502.817 160.428L507.017 158.664ZM512.771 156.27C514.073 158.076 515.795 160.596 516.719 162.444L512.519 164.502C511.049 161.604 510.251 160.428 508.613 158.202L512.771 156.27ZM489.167 186.93C489.167 183.234 489.167 166.518 489.167 162.948C489.167 161.268 488.999 159.084 488.663 157.488H496.601C496.433 159.084 496.181 160.932 496.181 162.948C496.181 166.518 496.181 183.192 496.181 186.93C496.181 188.064 496.433 191.382 496.643 193.272H488.663C488.957 191.466 489.167 188.652 489.167 186.93ZM494.669 168.282C500.297 169.794 509.663 173.154 513.527 175.044L510.629 182.142C505.883 179.706 499.247 177.186 494.669 175.632V168.282ZM91.92 316.5V296.34H114.04V237.12H94.86V221.72C106.06 219.62 113.34 216.82 120.62 212.2H138.96V296.34H157.72V316.5H91.92ZM197.813 318.46C175.833 318.46 160.853 299.7 160.853 263.86C160.853 228.02 175.833 210.38 197.813 210.38C219.793 210.38 234.633 228.16 234.633 263.86C234.633 299.7 219.793 318.46 197.813 318.46ZM197.813 299.14C205.233 299.14 211.113 292.42 211.113 263.86C211.113 235.44 205.233 229.42 197.813 229.42C190.393 229.42 184.373 235.44 184.373 263.86C184.373 292.42 190.393 299.14 197.813 299.14ZM227.945 334.66L225.065 327.06C232.025 324.66 235.705 320.34 235.625 315.7L235.465 306.34L239.945 314.18C238.585 315.38 236.825 315.94 234.905 315.94C230.505 315.94 226.425 313.06 226.425 307.94C226.425 303.14 230.345 299.94 235.305 299.94C241.545 299.94 244.985 304.9 244.985 313.22C244.985 323.54 239.065 331.3 227.945 334.66ZM275.572 318.46C253.592 318.46 238.612 299.7 238.612 263.86C238.612 228.02 253.592 210.38 275.572 210.38C297.552 210.38 312.392 228.16 312.392 263.86C312.392 299.7 297.552 318.46 275.572 318.46ZM275.572 299.14C282.992 299.14 288.872 292.42 288.872 263.86C288.872 235.44 282.992 229.42 275.572 229.42C268.152 229.42 262.132 235.44 262.132 263.86C262.132 292.42 268.152 299.14 275.572 299.14ZM353.884 318.46C331.904 318.46 316.924 299.7 316.924 263.86C316.924 228.02 331.904 210.38 353.884 210.38C375.864 210.38 390.704 228.16 390.704 263.86C390.704 299.7 375.864 318.46 353.884 318.46ZM353.884 299.14C361.304 299.14 367.184 292.42 367.184 263.86C367.184 235.44 361.304 229.42 353.884 229.42C346.464 229.42 340.444 235.44 340.444 263.86C340.444 292.42 346.464 299.14 353.884 299.14ZM432.197 318.46C410.217 318.46 395.237 299.7 395.237 263.86C395.237 228.02 410.217 210.38 432.197 210.38C454.177 210.38 469.017 228.16 469.017 263.86C469.017 299.7 454.177 318.46 432.197 318.46ZM432.197 299.14C439.617 299.14 445.497 292.42 445.497 263.86C445.497 235.44 439.617 229.42 432.197 229.42C424.777 229.42 418.757 235.44 418.757 263.86C418.757 292.42 424.777 299.14 432.197 299.14ZM471.601 278.772H509.281V284.484H477.409V320.82H471.601V278.772ZM506.497 278.772H512.353V314.052C512.353 317.172 511.681 318.804 509.665 319.764C507.697 320.676 504.817 320.82 500.497 320.82C500.257 319.188 499.249 316.548 498.433 315.06C501.217 315.204 504.337 315.156 505.297 315.156C506.209 315.156 506.497 314.868 506.497 314.004V278.772ZM474.769 296.628H509.329V302.34H474.769V296.628ZM488.737 281.892H494.497V299.46H488.737V281.892Z" fill="white"/>
</g>
<path d="M119.544 339.884C119.544 341.276 120.696 342.428 122.088 342.428C123.48 342.428 124.632 341.276 124.632 339.884C124.632 338.492 123.48 337.34 122.088 337.34C120.696 337.34 119.544 338.492 119.544 339.884ZM116.136 339.884C116.136 336.62 118.824 333.932 122.088 333.932C125.352 333.932 128.04 336.62 128.04 339.884C128.04 343.148 125.352 345.836 122.088 345.836C118.824 345.836 116.136 343.148 116.136 339.884ZM122.904 344.012C122.376 345.068 121.944 346.796 121.656 347.852C120.504 352.364 118.536 359.66 114.408 365.228C110.088 371.036 103.32 375.98 94.872 378.716L88.536 371.756C98.184 369.596 103.608 365.372 107.4 360.668C110.472 356.876 112.056 352.124 112.68 348.284C109.704 348.284 95.64 348.284 91.56 348.284C89.208 348.284 86.568 348.428 85.32 348.524V340.316C86.808 340.508 89.976 340.748 91.56 340.748C95.64 340.748 109.752 340.748 112.728 340.748C113.784 340.748 115.656 340.7 117.144 340.316L122.904 344.012ZM136.68 373.388C137.352 371.948 137.4 371.036 137.4 369.836C137.4 365.852 137.4 350.396 137.4 344.588C137.4 342.476 137.112 340.124 136.776 338.54H145.896C145.56 340.748 145.368 342.476 145.368 344.588C145.368 350.348 145.368 363.932 145.368 368.252C152.424 366.092 162.888 360.044 169.128 352.652L173.256 359.276C166.488 367.196 156.456 372.812 145.512 376.652C144.792 376.892 143.544 377.276 142.2 378.188L136.68 373.388ZM212.52 335.66C213.72 337.436 215.4 340.556 216.264 342.236L211.704 344.156C210.696 342.188 209.304 339.356 208.008 337.484L212.52 335.66ZM218.424 333.356C219.672 335.18 221.4 338.252 222.216 339.884L217.704 341.804C216.744 339.836 215.208 337.004 213.912 335.18L218.424 333.356ZM187.272 369.932C187.272 366.236 187.272 350.492 187.272 344.252C187.272 342.524 187.08 339.596 186.84 338.108H195.48C195.24 339.596 195 342.476 195 344.252C195 350.444 195 362.204 195 367.868C195 370.7 195.624 371.708 200.616 371.708C205.368 371.708 211.128 370.988 215.88 370.028L215.64 377.9C211.848 378.428 205.56 378.956 200.856 378.956C188.808 378.956 187.272 376.172 187.272 369.932ZM218.808 349.052C218.328 349.82 217.512 351.068 217.032 352.028C214.968 356.06 210.264 362.972 207.048 366.044L200.664 362.3C203.592 359.708 206.52 355.82 207.816 353.516C204.072 354.284 183.96 358.22 177.72 359.66L176.328 352.076C183.048 351.26 204.504 347.132 209.304 345.98C210.84 345.596 212.136 345.26 213.192 344.684L218.808 349.052ZM234.072 338.252C237.384 340.508 243.672 345.5 246.552 348.572L240.6 354.668C238.056 351.884 232.008 346.604 228.552 344.156L234.072 338.252ZM226.968 370.124C234.024 369.164 240.216 367.004 244.92 364.268C253.56 359.276 260.04 351.836 263.256 345.068L267.768 353.276C263.928 360.092 257.112 366.764 249.096 371.468C244.2 374.348 237.96 376.844 231.912 377.804L226.968 370.124ZM283.608 370.7C283.608 366.476 283.608 347.372 283.608 343.292C283.608 341.372 283.416 338.876 283.032 337.052H292.104C291.912 338.876 291.624 340.988 291.624 343.292C291.624 347.372 291.624 366.428 291.624 370.7C291.624 371.996 291.912 375.788 292.152 377.948H283.032C283.368 375.884 283.608 372.668 283.608 370.7ZM289.896 349.388C296.328 351.116 307.032 354.956 311.448 357.116L308.136 365.228C302.712 362.444 295.128 359.564 289.896 357.788V349.388Z" fill="white"/>
</g>
<defs>
<filter id="filter0_d_1252_2908" x="80.6328" y="152.624" width="452.086" height="197.036" filterUnits="userSpaceOnUse" color-interpolation-filters="sRGB">
<feFlood flood-opacity="0" result="BackgroundImageFix"/>
<feColorMatrix in="SourceAlpha" type="matrix" values="0 0 0 0 0 0 0 0 0 0 0 0 0 0 0 0 0 0 127 0" result="hardAlpha"/>
<feOffset dx="8" dy="7"/>
<feGaussianBlur stdDeviation="4"/>
<feComposite in2="hardAlpha" operator="out"/>
<feColorMatrix type="matrix" values="0 0 0 0 0.382568 0 0 0 0 0.275521 0 0 0 0 0.239267 0 0 0 0.1 0"/>
<feBlend mode="normal" in2="BackgroundImageFix" result="effect1_dropShadow_1252_2908"/>
<feBlend mode="normal" in="SourceGraphic" in2="effect1_dropShadow_1252_2908" result="shape"/>
</filter>
<linearGradient id="paint0_linear_1252_2908" x1="-338.167" y1="82" x2="215.512" y2="81.5202" gradientUnits="userSpaceOnUse">
<stop offset="0.125" stop-color="#D4BF9E"/>
<stop offset="0.462907" stop-color="#C8AD82"/>
<stop offset="0.592566" stop-color="#BFA06E"/>
<stop offset="0.802083" stop-color="#BA9862"/>
<stop offset="0.895833" stop-color="#F4EDE1"/>
<stop offset="0.963585" stop-color="#B9965F"/>
</linearGradient>
<linearGradient id="paint1_linear_1252_2908" x1="178.269" y1="640.009" x2="685.372" y2="639.569" gradientUnits="userSpaceOnUse">
<stop offset="0.125" stop-color="#D4BF9E"/>
<stop offset="0.462907" stop-color="#C8AD82"/>
<stop offset="0.592566" stop-color="#BFA06E"/>
<stop offset="0.802083" stop-color="#BA9862"/>
<stop offset="0.895833" stop-color="#F4EDE1"/>
<stop offset="0.963585" stop-color="#B9965F"/>
</linearGradient>
<clipPath id="clip0_1252_2908">
<rect width="600" height="720" fill="white"/>
</clipPath>
</defs>
</svg>
