<svg width="1920" height="780" viewBox="0 0 1920 780" fill="none" xmlns="http://www.w3.org/2000/svg">
<g clip-path="url(#clip0_1213_2005)">
<rect width="1920" height="780" fill="#F4693A"/>
<path d="M2163.29 581.857H1935.05C1924.11 581.857 1915.16 572.915 1915.16 561.971V560.314C1915.16 549.37 1924.11 540.429 1935.05 540.429H2057.99C2068.93 540.429 2077.87 531.487 2077.87 520.543V518.886C2077.87 507.942 2068.93 499 2057.99 499H1599.55C1588.6 499 1579.66 507.942 1579.66 518.886V520.543C1579.66 531.487 1588.6 540.429 1599.55 540.429H1787.08C1798.02 540.429 1806.97 549.37 1806.97 560.314V561.971C1806.97 572.915 1798.02 581.857 1787.08 581.857H1476.99C1466.04 581.857 1457.1 590.799 1457.1 601.743V603.4C1457.1 614.344 1466.04 623.286 1476.99 623.286H1681.16C1692.11 623.286 1701.05 632.227 1701.05 643.171V644.829C1701.05 655.773 1692.11 664.714 1681.16 664.714H1274.89C1263.94 664.714 1255 673.656 1255 684.6V686.257C1255 697.201 1263.94 706.143 1274.89 706.143H1601.93C1612.87 706.143 1621.82 715.085 1621.82 726.029V727.686C1621.82 738.63 1612.87 747.571 1601.93 747.571H1584.7C1573.76 747.571 1564.82 756.513 1564.82 767.457V769.114C1564.82 780.058 1573.76 789 1584.7 789H1775.27C1786.22 789 1795.16 780.058 1795.16 769.114V767.457C1795.16 756.513 1786.22 747.571 1775.27 747.571H1724.04C1713.1 747.571 1704.15 738.63 1704.15 727.686V726.029C1704.15 715.085 1713.1 706.143 1724.04 706.143H1922.66C1933.6 706.143 1942.54 697.201 1942.54 686.257V684.6C1942.54 673.656 1933.6 664.714 1922.66 664.714H1829.2C1818.26 664.714 1809.31 655.773 1809.31 644.829V643.171C1809.31 632.227 1818.26 623.286 1829.2 623.286H2163.36C2174.3 623.286 2183.24 614.344 2183.24 603.4V601.743C2183.24 590.799 2174.3 581.857 2163.36 581.857H2163.29Z" fill="url(#paint0_linear_1213_2005)"/>
<rect x="57" y="38" width="1791" height="692" rx="10" stroke="white" stroke-width="12" stroke-linejoin="round"/>
<circle cx="171" cy="48" r="374" fill="#D32D26"/>
<path d="M581.287 38.8571H353.05C342.106 38.8571 333.164 29.9154 333.164 18.9714V17.3143C333.164 6.37027 342.106 -2.57143 353.05 -2.57143H475.989C486.933 -2.57143 495.875 -11.5131 495.875 -22.4572V-24.1143C495.875 -35.0583 486.933 -44 475.989 -44H17.5474C6.6033 -44 -2.33838 -35.0583 -2.33838 -24.1143V-22.4572C-2.33838 -11.5131 6.6033 -2.57143 17.5474 -2.57143H205.081C216.025 -2.57143 224.967 6.37027 224.967 17.3143V18.9714C224.967 29.9154 216.025 38.8571 205.081 38.8571H-105.012C-115.956 38.8571 -124.898 47.7988 -124.898 58.7429V60.4C-124.898 71.344 -115.956 80.2857 -105.012 80.2857H99.1617C110.106 80.2857 119.047 89.2274 119.047 100.171V101.829C119.047 112.773 110.106 121.714 99.1617 121.714H-307.114C-318.058 121.714 -327 130.656 -327 141.6V143.257C-327 154.201 -318.058 163.143 -307.114 163.143H19.9297C30.8738 163.143 39.8155 172.085 39.8155 183.029V184.686C39.8155 195.63 30.8738 204.571 19.9297 204.571H2.70236C-8.24167 204.571 -17.1834 213.513 -17.1834 224.457V226.114C-17.1834 237.058 -8.24167 246 2.70236 246H193.274C204.218 246 213.159 237.058 213.159 226.114V224.457C213.159 213.513 204.218 204.571 193.274 204.571H142.04C131.096 204.571 122.155 195.63 122.155 184.686V183.029C122.155 172.085 131.096 163.143 142.04 163.143H340.656C351.6 163.143 360.541 154.201 360.541 143.257V141.6C360.541 130.656 351.6 121.714 340.656 121.714H247.2C236.256 121.714 227.314 112.773 227.314 101.829V100.171C227.314 89.2274 236.256 80.2857 247.2 80.2857H581.356C592.3 80.2857 601.242 71.344 601.242 60.4V58.7429C601.242 47.7988 592.3 38.8571 581.356 38.8571H581.287Z" fill="url(#paint1_linear_1213_2005)"/>
<path d="M1148.68 344.389L1125.81 481.983L1186.18 497.689L1526.03 453.963L1148.68 344.389Z" fill="#6F7D85"/>
<path d="M1937.82 535.975L2005.07 294.917L1971.29 248.897L1801.83 458.23L1937.82 535.975Z" fill="#88A2B1"/>
<path d="M742.962 235.036C772.413 247.339 1527.08 483.908 1729.96 530.205C1932.84 576.502 1995.23 564.751 1986.49 545.345C1977.75 525.938 1891.15 453.289 1688.96 366.622C1688.96 366.622 1051.31 97.5384 877.099 71.8327C741.963 51.8935 672.668 115.795 660.455 133.691C648.242 151.586 660.048 200.358 742.964 234.989L742.962 235.036Z" fill="#CDDFEC"/>
<path d="M742.962 235.036C772.413 247.339 1527.08 483.908 1729.96 530.205C1932.84 576.502 1995.23 564.751 1986.49 545.345C1977.75 525.938 1891.15 453.289 1688.96 366.622C1688.96 366.622 1051.31 97.5384 877.099 71.8327C741.963 51.8935 672.668 115.795 660.455 133.691C648.242 151.586 660.048 200.358 742.964 234.989L742.962 235.036Z" fill="#CDDFEC"/>
<path d="M1254.8 288.881C1254.8 288.881 1439.36 391.192 1648.73 438.154L1908.26 263.694L1823.84 231.697L1254.77 288.857L1254.8 288.881Z" fill="#6F7D85"/>
<path d="M1821.37 486.606L2086.35 474.337L2122.63 487.318L1937.82 535.975L1821.37 486.606Z" fill="#6F7D85"/>
<path d="M1373.41 536.012C1384.72 529.871 1388.92 515.719 1382.78 504.403C1376.63 493.088 1362.48 488.894 1351.17 495.035C1339.85 501.177 1335.66 515.328 1341.8 526.644C1347.94 537.959 1362.09 542.154 1373.41 536.012Z" fill="#6F7D85"/>
<path d="M1393.94 416.419L1377.56 415.755L1372.56 539.323L1388.94 539.986L1393.94 416.419Z" fill="#6F7D85"/>
<path d="M1416.83 536.434C1420.53 524.101 1413.53 511.107 1401.19 507.412C1388.86 503.717 1375.87 510.719 1372.17 523.053C1368.48 535.386 1375.48 548.379 1387.81 552.075C1400.14 555.77 1413.14 548.767 1416.83 536.434Z" fill="#6F7D85"/>
<path d="M1117.72 412.489C1106.86 447.034 1107.99 478.141 1120.22 481.992C1210.37 510.321 1294.31 535.893 1313.74 474.086C1333.17 412.279 1249.66 385.235 1159.52 356.93C1147.28 353.078 1128.55 377.967 1117.69 412.512L1117.72 412.489Z" fill="#CDDFEC"/>
<path d="M1160.2 425.84L1126.4 390.219C1123.19 396.968 1120.24 404.46 1117.72 412.489C1106.86 447.034 1107.99 478.141 1120.22 481.992C1210.37 510.321 1294.31 535.894 1313.74 474.086C1313.77 473.969 1313.79 473.876 1313.82 473.759L1160.2 425.84Z" fill="#88A2B1"/>
<path d="M1160.2 425.839C1151 455.086 1137.24 476.795 1129.45 474.352C1121.65 471.909 1122.76 446.212 1131.96 416.966C1141.16 387.72 1154.92 366.01 1162.72 368.453C1170.51 370.896 1169.4 396.593 1160.2 425.839Z" fill="#6F7D85"/>
<path d="M1729.96 530.205C1875.67 563.455 1948.89 566.775 1975.38 558.818C1763.15 492.38 865.9 211.27 759.998 174.55C711.254 157.66 678.358 151.624 656.424 150.405C657.412 173.279 679.086 208.362 742.964 235.036C772.415 247.339 1527.08 483.908 1729.96 530.205Z" fill="#6F7D85"/>
<path d="M1314.76 324.662C1303.09 361.751 1304.32 395.178 1317.46 399.303C1414.28 429.723 1504.45 457.202 1525.32 390.82C1546.19 324.414 1456.5 295.394 1359.68 264.975C1346.54 260.85 1326.43 287.574 1314.76 324.662Z" fill="#CDDFEC"/>
<path d="M1360.39 338.991L1324.1 300.717C1320.66 307.976 1317.47 316.002 1314.76 324.639C1303.09 361.727 1304.32 395.154 1317.46 399.279C1414.28 429.699 1504.46 457.178 1525.32 390.796C1525.35 390.679 1525.38 390.562 1525.41 390.445L1360.39 338.968L1360.39 338.991Z" fill="#88A2B1"/>
<path d="M1360.39 338.991C1350.52 370.408 1335.72 393.731 1327.34 391.099C1318.96 388.467 1320.17 360.859 1330.05 329.442C1339.93 298.025 1354.72 274.702 1363.1 277.334C1371.48 279.966 1370.27 307.574 1360.39 338.991Z" fill="#6F7D85"/>
<path d="M757.902 112.367L830.717 131.414L824.942 103.57L761.121 89.4976L726.522 86.9854C713.562 92.3938 702.467 98.445 693.264 104.478L757.878 112.39L757.902 112.367Z" fill="#6F7D85"/>
<path d="M929.935 140.065L916.449 135.099L911.846 109.856L925.331 114.822L929.935 140.065Z" fill="#88A2B1"/>
<path d="M953.685 147.741L940.199 142.774L935.596 117.531L949.081 122.498L953.685 147.741Z" fill="#88A2B1"/>
<path d="M977.415 155.438L963.93 150.472L959.35 125.229L972.835 130.196L977.415 155.438Z" fill="#88A2B1"/>
<path d="M1001.17 163.113L987.682 158.147L983.078 132.904L996.564 137.87L1001.17 163.113Z" fill="#88A2B1"/>
<path d="M1024.92 170.812L1011.44 165.846L1006.83 140.603L1020.32 145.569L1024.92 170.812Z" fill="#88A2B1"/>
<path d="M1048.65 178.487L1035.17 173.52L1030.59 148.278L1044.07 153.245L1048.65 178.487Z" fill="#88A2B1"/>
<path d="M1072.4 186.186L1058.92 181.219L1054.31 155.976L1067.8 160.943L1072.4 186.186Z" fill="#88A2B1"/>
<path d="M1145.46 210.347L1131.97 205.381L1127.37 180.138L1140.85 185.104L1145.46 210.347Z" fill="#88A2B1"/>
<path d="M1169.18 218.045L1155.7 213.079L1151.12 187.813L1164.6 192.803L1169.18 218.045Z" fill="#88A2B1"/>
<path d="M1192.94 225.72L1179.45 220.753L1174.85 195.51L1188.34 200.477L1192.94 225.72Z" fill="#88A2B1"/>
<path d="M1216.69 233.419L1203.2 228.453L1198.6 203.186L1212.09 208.176L1216.69 233.419Z" fill="#88A2B1"/>
<path d="M1240.42 241.093L1226.94 236.126L1222.36 210.884L1235.84 215.851L1240.42 241.093Z" fill="#88A2B1"/>
<path d="M1264.17 248.792L1250.69 243.825L1246.09 218.559L1259.57 223.549L1264.17 248.792Z" fill="#88A2B1"/>
<path d="M1287.93 256.467L1274.44 251.501L1269.84 226.258L1283.32 231.224L1287.93 256.467Z" fill="#88A2B1"/>
<path d="M1503.68 525.344C1518.04 525.925 1530.16 514.753 1530.74 500.39C1531.32 486.027 1520.15 473.912 1505.79 473.33C1491.42 472.748 1479.31 483.921 1478.73 498.284C1478.15 512.647 1489.32 524.762 1503.68 525.344Z" fill="#6F7D85"/>
<path d="M1534.5 526.615L1516.21 525.875L1520.19 427.653L1538.2 435.356L1534.5 526.615Z" fill="#6F7D85"/>
<path d="M1539.7 541.268C1554.06 541.85 1566.18 530.678 1566.76 516.315C1567.34 501.952 1556.17 489.837 1541.81 489.255C1527.44 488.673 1515.33 499.845 1514.75 514.208C1514.16 528.572 1525.34 540.687 1539.7 541.268Z" fill="#6F7D85"/>
<rect x="115" y="311" width="745" height="82" rx="4" fill="#FFEC8C"/>
<path d="M224.66 334.408H237.092V339.592H224.66V334.408ZM224.66 345.256H237.092V350.296H224.66V345.256ZM224.66 356.2H237.14V361.336H224.66V356.2ZM234.596 334.408H240.164V370.984C240.164 373.768 239.636 375.352 237.908 376.216C236.228 377.128 233.78 377.272 230.18 377.272C230.036 375.736 229.268 373.24 228.548 371.8C230.612 371.896 232.964 371.896 233.636 371.848C234.356 371.848 234.596 371.608 234.596 370.888V334.408ZM222.307 334.408H227.684V352.024C227.684 359.608 227.06 370.6 222.98 377.416C222.02 376.408 219.668 374.728 218.42 374.152C222.02 368.008 222.307 358.888 222.307 352.024V334.408ZM197.156 337.912H220.676V342.904H197.156V337.912ZM203.444 345.736H214.868V350.152H203.444V345.736ZM203.444 353.224H214.916V357.592H203.444V353.224ZM196.58 360.808H220.34V365.848H196.58V360.808ZM200.948 332.776H206.132V362.632H200.948V332.776ZM212.132 332.776H217.412V362.632H212.132V332.776ZM202.58 366.184L208.004 367.768C206.228 371.32 203.396 375.064 200.852 377.416C199.748 376.456 197.54 374.824 196.196 374.056C198.788 372.088 201.236 369.112 202.58 366.184ZM209.684 368.344L214.052 365.944C215.972 368.056 218.42 370.984 219.524 372.952L214.868 375.688C213.908 373.768 211.604 370.6 209.684 368.344ZM260.564 361.528H273.716V365.656H260.564V361.528ZM260.228 354.424H276.404V372.856H260.228V368.632H271.028V358.648H260.228V354.424ZM257.876 354.424H263.06V375.304H257.876V354.424ZM249.812 340.744H261.86V344.632H249.812V340.744ZM272.084 340.744H284.228V344.632H272.084V340.744ZM281.876 334.072H287.684V370.504C287.684 373.624 287.06 375.304 285.14 376.264C283.22 377.224 280.436 377.32 276.308 377.32C276.068 375.688 275.204 373 274.436 371.464C276.932 371.608 279.86 371.56 280.724 371.56C281.588 371.56 281.876 371.272 281.876 370.456V334.072ZM250.292 334.072H265.46V351.496H250.292V347.368H260.084V338.248H250.292V334.072ZM284.948 334.072V338.248H274.196V347.512H284.948V351.64H268.724V334.072H284.948ZM246.98 334.072H252.692V377.32H246.98V334.072ZM315.427 343.192H331.988V347.896H315.427V343.192ZM307.172 370.984C311.54 370.36 318.26 369.16 324.692 368.008L325.124 373C319.556 374.296 313.652 375.592 309.092 376.6L307.172 370.984ZM312.164 334.408H317.78V372.328H312.164V334.408ZM315.427 334.408H334.58V356.824H315.427V351.88H328.916V339.352H315.427V334.408ZM325.46 353.56C327.188 362.104 330.884 369.208 337.94 372.328C336.692 373.432 335.012 375.688 334.196 377.176C326.468 373.096 322.724 364.936 320.66 354.328L325.46 353.56ZM332.372 357.16L336.884 360.328C334.244 362.824 331.172 365.512 328.772 367.24L325.172 364.456C327.476 362.584 330.596 359.56 332.372 357.16ZM294.692 334.312H306.692V339.448H300.068V377.368H294.692V334.312ZM305.108 334.312H306.116L306.932 334.12L310.82 336.376C309.524 340.552 307.796 345.88 306.308 349.624C309.476 353.368 310.1 356.68 310.1 359.464C310.1 362.68 309.38 364.696 307.796 365.8C307.028 366.376 306.068 366.712 304.964 366.856C304.052 367 302.804 367 301.652 366.952C301.604 365.512 301.172 363.256 300.356 361.816C301.268 361.912 301.94 361.912 302.564 361.912C303.092 361.864 303.572 361.768 304.004 361.48C304.628 361.048 304.868 360.088 304.868 358.744C304.868 356.488 304.148 353.512 301.316 350.248C302.708 345.928 304.34 339.112 305.108 336.04V334.312ZM349.892 346.744H376.436V352.216H349.892V346.744ZM363.14 358.264H379.364V363.64H363.14V358.264ZM360.116 349.912H366.164V373.096L360.116 372.376V349.912ZM348.644 354.904L354.692 355.528C353.444 365.272 350.468 372.904 344.996 377.608C344.036 376.6 341.588 374.536 340.244 373.672C345.428 369.832 347.828 363.16 348.644 354.904ZM353.299 360.904C356.372 369.736 363.092 371.08 371.636 371.08C374.18 371.08 382.196 371.08 385.412 370.984C384.596 372.328 383.636 375.112 383.396 376.84H371.3C360.212 376.84 352.724 374.584 348.596 362.488L353.299 360.904ZM360.02 332.296H366.164V341.08H360.02V332.296ZM342.548 337.144H383.828V349.192H377.876V342.616H348.212V349.192H342.548V337.144ZM411.188 348.664C414.548 348.664 417.284 351.4 417.284 354.76C417.284 358.168 414.548 360.904 411.188 360.904C407.78 360.904 405.044 358.168 405.044 354.76C405.044 351.4 407.78 348.664 411.188 348.664ZM436.148 356.824C440.42 355.912 446.756 354.328 452.756 352.84L453.428 358.024C447.956 359.56 442.148 361.144 437.588 362.344L436.148 356.824ZM436.868 341.32H452.852V346.648H436.868V341.32ZM442.676 332.248H448.244V371.32C448.244 374.008 447.716 375.448 446.132 376.312C444.548 377.176 442.243 377.32 438.884 377.32C438.74 375.88 438.02 373.576 437.3 372.136C439.172 372.184 441.14 372.184 441.764 372.184C442.436 372.184 442.676 371.944 442.676 371.272V332.248ZM453.956 343H480.74V376.936H474.98V348.472H459.427V377.224H453.956V343ZM457.412 355.384H476.564V360.76H457.412V355.384ZM457.556 368.248H476.756V373.768H457.556V368.248ZM464.372 332.344H469.796V371.608H464.372V332.344ZM495.284 350.968V368.632H489.908V356.296H484.916V350.968H495.284ZM495.284 366.424C497.156 369.688 500.66 371.08 505.604 371.32C511.556 371.56 523.364 371.416 530.18 370.888C529.556 372.136 528.692 374.68 528.452 376.264C522.308 376.552 511.652 376.648 505.652 376.408C499.796 376.168 495.859 374.728 492.98 370.984C491.156 372.904 489.236 374.728 486.98 376.888L484.244 371.368C486.164 370.024 488.468 368.2 490.484 366.424H495.284ZM484.628 336.232L489.14 333.352C491.684 335.656 494.66 338.92 495.956 341.272L491.06 344.488C489.956 342.184 487.076 338.68 484.628 336.232ZM498.212 351.88H527.636V356.056H498.212V351.88ZM496.772 359.272H529.124V363.544H496.772V359.272ZM504.596 349.336H510.02V361.336H504.596V349.336ZM515.588 349.336H521.06V361.336H515.588V349.336ZM499.508 339.352H506.516V337.336H497.396V333.736H511.364V343H499.508V339.352ZM498.068 339.352H502.82V344.008C502.82 345.016 503.012 345.208 504.26 345.208C504.788 345.208 507.236 345.208 507.956 345.208C508.916 345.208 509.108 344.92 509.3 343.336C510.164 343.96 511.988 344.584 513.284 344.824C512.804 348.088 511.508 349 508.58 349C507.668 349 504.452 349 503.54 349C499.268 349 498.068 347.896 498.068 344.056V339.352ZM515.3 339.352H522.356V337.336H512.996V333.736H527.252V343H515.3V339.352ZM513.86 339.352H518.612V344.008C518.612 345.016 518.852 345.208 520.1 345.208C520.676 345.208 523.22 345.208 523.94 345.208C524.948 345.208 525.14 344.92 525.332 343.288C526.196 343.912 528.02 344.488 529.316 344.776C528.836 348.088 527.54 349 524.564 349C523.652 349 520.292 349 519.38 349C515.06 349 513.86 347.896 513.86 344.008V339.352ZM514.772 365.56L518.996 363.208C522.452 364.792 526.676 367.096 529.076 368.728L523.124 370.888C521.348 369.352 517.94 367.192 514.772 365.56ZM506.372 363.208L511.411 364.984C508.916 367.288 504.884 369.496 501.572 370.84C500.66 369.88 498.596 368.152 497.396 367.384C500.756 366.376 504.308 364.84 506.372 363.208ZM534.5 340.12C536.372 340.072 538.292 339.976 539.204 339.88C543.188 339.496 551.108 338.824 559.892 338.056C564.884 337.672 570.116 337.336 573.524 337.192L573.572 343.384C570.98 343.384 566.852 343.432 564.26 344.008C558.5 345.544 554.132 351.784 554.132 357.496C554.132 365.368 561.524 368.248 569.636 368.632L567.38 375.208C557.348 374.584 547.844 369.16 547.844 358.744C547.844 351.88 551.732 346.408 554.948 343.96C550.484 344.44 540.644 345.496 535.124 346.696L534.5 340.12ZM566.708 348.088C567.86 349.768 569.588 352.696 570.5 354.616L566.9 356.2C565.652 353.608 564.644 351.688 563.156 349.576L566.708 348.088ZM572.036 345.88C573.284 347.56 575.108 350.392 576.116 352.264L572.516 353.992C571.22 351.4 570.116 349.576 568.58 347.464L572.036 345.88ZM592.436 373.672C586.82 373.672 583.076 371.464 580.388 368.824L583.7 364.36C585.668 366.328 588.212 367.96 591.476 367.96C595.22 367.96 597.764 365.608 597.764 361.384C597.764 357.256 595.364 354.952 591.812 354.952C589.7 354.952 588.548 355.48 586.484 356.824L583.22 354.712L584.228 337.48H603.236V343.384H590.324L589.652 350.92C591.044 350.296 592.292 349.96 593.924 349.96C599.876 349.96 604.868 353.464 604.868 361.24C604.868 369.112 598.964 373.672 592.436 373.672ZM621.66 373.672C614.412 373.672 609.612 367.384 609.612 355.096C609.612 342.856 614.412 336.856 621.66 336.856C628.86 336.856 633.66 342.856 633.66 355.096C633.66 367.384 628.86 373.672 621.66 373.672ZM621.66 368.152C624.732 368.152 626.988 365.08 626.988 355.096C626.988 345.16 624.732 342.28 621.66 342.28C618.588 342.28 616.284 345.16 616.284 355.096C616.284 365.08 618.588 368.152 621.66 368.152ZM654.101 370.216H675.605V375.448H654.101V370.216ZM651.701 336.952H668.693V342.04H651.701V336.952ZM652.949 331.96L659.429 333.256C655.349 340.264 649.589 346.696 640.949 351.88C640.133 350.44 638.213 348.328 636.917 347.32C644.837 343.144 650.165 337.288 652.949 331.96ZM666.869 336.952H667.973L668.933 336.664L672.917 338.776C667.301 353.704 654.485 363.496 640.181 368.296C639.461 366.712 638.021 364.36 636.821 363.16C650.069 359.32 662.453 350.008 666.869 337.912V336.952ZM645.413 347.512L649.685 343.768C652.997 346.12 657.365 349.528 659.477 352.024L654.821 356.2C652.997 353.704 648.725 350.008 645.413 347.512ZM672.917 355.576H678.917V377.368H672.917V355.576ZM656.549 355.576H675.797V360.808H656.549V377.272H650.789V359.848L655.157 355.576H656.549ZM702.869 337.576H729.221V342.136H702.869V337.576ZM704.165 344.008H728.213V348.328H704.165V344.008ZM701.957 350.392H730.085V355.096H701.957V350.392ZM721.349 332.152L727.061 333.544C725.765 335.704 724.469 337.816 723.509 339.208L718.997 337.912C719.861 336.232 720.869 333.832 721.349 332.152ZM705.941 333.832L710.453 332.344C711.557 333.976 712.757 336.184 713.189 337.672L708.389 339.4C708.005 337.912 706.949 335.56 705.941 333.832ZM725.525 356.008L729.845 359.08C727.733 361.288 725.189 363.64 723.269 365.176L719.573 362.344C721.445 360.76 724.037 358.024 725.525 356.008ZM702.869 358.744L706.805 356.152C708.533 357.928 710.645 360.376 711.605 362.056L707.477 364.936C706.613 363.208 704.597 360.616 702.869 358.744ZM700.085 369.592C702.965 368.296 707.189 366.136 711.317 364.024L712.805 368.68C709.445 370.648 705.653 372.76 702.581 374.44L700.085 369.592ZM713.285 340.648H718.805V371.608C718.805 374.2 718.373 375.592 716.837 376.456C715.253 377.32 712.949 377.416 709.925 377.416C709.781 375.928 709.109 373.672 708.437 372.328C710.069 372.376 711.941 372.376 712.517 372.376C713.093 372.376 713.285 372.136 713.285 371.608V340.648ZM718.517 356.008C720.629 362.44 724.853 367.96 730.997 370.456C729.845 371.512 728.165 373.624 727.349 375.112C721.109 371.656 717.029 364.936 714.773 356.872L718.517 356.008ZM685.925 342.184H701.813V347.512H685.925V342.184ZM691.781 332.248H697.013V377.32H691.781V332.248ZM691.685 345.832L694.901 346.936C693.509 354.52 690.773 363.784 687.365 368.728C686.885 367.192 685.637 364.984 684.821 363.64C687.893 359.464 690.581 351.928 691.685 345.832ZM696.773 349.336C697.829 350.632 701.765 356.68 702.581 358.024L699.605 362.152C698.549 359.368 695.669 353.896 694.373 351.64L696.773 349.336ZM753.317 360.664L752.069 344.248L751.829 337.096H759.749L759.509 344.248L758.26 360.664H753.317ZM755.812 373.48C753.317 373.48 751.541 371.704 751.541 369.208C751.541 366.712 753.365 364.984 755.812 364.984C758.213 364.984 760.036 366.712 760.036 369.208C760.036 371.704 758.213 373.48 755.812 373.48Z" fill="#1E0E05"/>
<g filter="url(#filter0_d_1213_2005)">
<path d="M114.68 480L133.64 420.8H147.56L166.52 480H154.12L145.64 449.2C143.88 443.04 142.2 436.16 140.52 429.84H140.2C138.6 436.24 136.92 443.04 135.16 449.2L126.68 480H114.68ZM126.44 464.8V455.68H154.6V464.8H126.44ZM172.57 480V435.28H182.09L183.05 441.2H183.29C187.05 437.36 191.21 434.16 196.97 434.16C203.45 434.16 207.21 436.96 209.29 441.92C213.45 437.68 217.77 434.16 223.61 434.16C233.13 434.16 237.45 440.88 237.45 452.08V480H225.69V453.6C225.69 446.56 223.77 444.24 219.45 444.24C216.89 444.24 214.09 445.84 210.89 449.2V480H199.13V453.6C199.13 446.56 197.13 444.24 192.81 444.24C190.33 444.24 187.37 445.84 184.33 449.2V480H172.57ZM260.639 481.12C252.639 481.12 247.439 475.52 247.439 467.84C247.439 458.32 255.199 453.28 273.199 451.28C272.959 446.88 271.119 443.6 265.599 443.6C261.439 443.6 257.359 445.36 253.279 447.84L249.039 440C254.319 436.8 260.639 434.16 267.759 434.16C279.119 434.16 284.959 440.88 284.959 453.92V480H275.359L274.479 475.28H274.159C270.239 478.64 265.759 481.12 260.639 481.12ZM264.479 471.92C267.839 471.92 270.319 470.4 273.199 467.6V458.56C262.239 459.92 258.639 462.88 258.639 466.96C258.639 470.4 261.039 471.92 264.479 471.92ZM293.825 480V473.76L313.905 444.48H296.065V435.28H328.625V441.52L308.545 470.8H329.265V480H293.825ZM355.196 481.12C343.916 481.12 333.676 472.48 333.676 457.68C333.676 442.8 343.916 434.16 355.196 434.16C366.396 434.16 376.636 442.8 376.636 457.68C376.636 472.48 366.396 481.12 355.196 481.12ZM355.196 471.6C361.276 471.6 364.636 466.08 364.636 457.68C364.636 449.2 361.276 443.76 355.196 443.76C349.036 443.76 345.676 449.2 345.676 457.68C345.676 466.08 349.036 471.6 355.196 471.6ZM386.554 480V435.28H396.074L397.034 441.2H397.274C401.114 437.36 405.754 434.16 411.834 434.16C421.434 434.16 425.674 440.88 425.674 452.08V480H413.914V453.6C413.914 446.56 411.914 444.24 407.594 444.24C403.914 444.24 401.594 446 398.314 449.2V480H386.554ZM492.364 414.16C494.364 417.04 497.164 422.16 498.684 425.12L492.284 427.84C490.604 424.56 488.204 419.84 486.044 416.72L492.364 414.16ZM501.804 410.56C503.884 413.52 506.844 418.64 508.284 421.44L501.884 424.16C500.284 420.8 497.644 416.16 495.484 413.12L501.804 410.56ZM459.404 424.32C458.924 422.08 458.364 420.16 457.724 418.24L469.084 416.48C469.244 418 469.564 420.72 469.884 422.64C470.684 427.92 478.604 468.4 480.284 476.56C480.844 478.88 481.564 481.76 482.284 484.4L470.764 486.4C470.364 483.44 470.204 480.72 469.644 478.32C468.444 471.12 460.684 430.8 459.404 424.32ZM437.564 434.56C440.044 434.4 442.444 434.24 445.004 433.92C451.804 433.12 479.804 428.8 487.004 427.36C489.484 426.88 492.524 426.24 494.444 425.68L496.444 436.16C494.684 436.32 491.404 436.8 489.004 437.12C480.524 438.48 453.004 442.88 447.004 443.92C444.524 444.4 442.444 444.88 439.724 445.52L437.564 434.56ZM437.644 458C439.724 457.92 443.404 457.52 445.884 457.12C454.444 455.92 483.644 451.2 492.844 449.44C495.964 448.8 498.924 448.16 501.084 447.52L503.164 458.08C501.004 458.24 497.724 458.88 494.764 459.36C484.604 460.88 455.804 465.6 447.884 467.12C444.444 467.68 441.724 468.24 439.884 468.72L437.644 458ZM582.604 426.8C581.804 428.32 581.244 430.64 580.844 432.32C579.004 440.16 575.484 452.56 568.764 461.52C561.564 471.04 550.924 479.04 536.604 483.6L527.884 474C543.804 470.32 552.764 463.36 559.244 455.28C564.604 448.56 567.564 439.52 568.684 432.64C563.804 432.64 537.404 432.64 531.404 432.64C527.724 432.64 523.964 432.88 521.884 432.96V421.68C524.284 422 528.764 422.32 531.404 422.32C537.404 422.32 563.964 422.32 568.444 422.32C569.964 422.32 572.524 422.24 574.684 421.76L582.604 426.8ZM616.524 472.4C616.524 466.24 616.524 433.12 616.524 426.4C616.524 423.52 616.284 419.6 615.724 416.72H628.204C627.884 419.6 627.484 423.04 627.484 426.4C627.484 435.2 627.564 466.48 627.564 472.4C627.564 474.64 627.884 480.24 628.284 483.52H615.724C616.284 480.4 616.524 475.52 616.524 472.4ZM625.164 437.44C635.804 440.4 653.084 446.72 660.924 450.56L656.444 461.68C647.324 456.96 633.884 451.84 625.164 448.96V437.44ZM714.044 415.84C713.804 417.76 713.564 421.12 713.484 423.04C712.604 454.8 705.084 471.04 687.404 483.6L678.044 476.08C681.404 474.24 685.404 471.6 688.604 468.32C699.084 457.92 702.764 444.32 702.844 423.2C702.844 421.44 702.524 417.76 702.204 415.84H714.044ZM741.164 433.04C740.924 434.32 740.684 436.32 740.684 437.2C740.364 445.92 739.324 468.24 735.884 476.4C734.204 480.4 731.084 482.56 725.644 482.56C721.004 482.56 716.284 482.16 712.364 481.84L711.084 471.2C715.084 471.84 719.164 472.32 722.364 472.32C724.924 472.32 726.044 471.44 726.844 469.44C729.164 464.4 730.284 448.4 730.284 439.76H691.244C688.524 439.76 684.044 439.84 680.684 440.16V429.6C684.044 430 688.124 430.16 691.164 430.16H728.204C730.284 430.16 732.364 430 734.284 429.6L741.164 433.04ZM758.764 442.96C761.724 443.2 767.484 443.52 771.644 443.52C781.084 443.52 807.484 443.52 814.604 443.52C818.364 443.52 821.884 443.12 824.044 442.96V455.6C822.124 455.52 818.044 455.12 814.684 455.12C807.404 455.12 781.084 455.12 771.644 455.12C767.164 455.12 761.804 455.36 758.764 455.6V442.96ZM885.964 420.48C888.204 423.84 891.484 428.96 893.244 432.64L886.364 435.68C883.964 430.64 882.204 427.44 879.244 423.36L885.964 420.48ZM896.444 416.16C898.844 419.36 902.204 424.32 903.964 427.92L897.244 431.28C894.684 426.16 892.764 423.2 889.804 419.28L896.444 416.16ZM854.124 473.52C854.124 467.44 854.124 434.32 854.124 427.52C854.124 424.64 853.804 420.72 853.244 417.92H865.804C865.484 420.72 865.084 424.24 865.084 427.52C865.084 436.4 865.084 467.6 865.084 473.52C865.084 475.84 865.484 481.44 865.804 484.64H853.324C853.804 481.52 854.124 476.72 854.124 473.52ZM862.684 438.56C873.404 441.52 890.604 447.84 898.524 451.76L893.964 462.8C884.924 458.08 871.404 452.96 862.684 450.08V438.56ZM129.04 660V634.08H157.48V557.94H132.82V538.14C147.22 535.44 156.58 531.84 165.94 525.9H189.52V634.08H213.64V660H129.04ZM263.388 662.52C235.128 662.52 215.868 638.4 215.868 592.32C215.868 546.24 235.128 523.56 263.388 523.56C291.648 523.56 310.728 546.42 310.728 592.32C310.728 638.4 291.648 662.52 263.388 662.52ZM263.388 637.68C272.928 637.68 280.488 629.04 280.488 592.32C280.488 555.78 272.928 548.04 263.388 548.04C253.848 548.04 246.108 555.78 246.108 592.32C246.108 629.04 253.848 637.68 263.388 637.68ZM301.875 682.7L298.275 673.2C306.975 670.2 311.575 664.8 311.475 659L311.275 647.3L316.875 657.1C315.175 658.6 312.975 659.3 310.575 659.3C305.075 659.3 299.975 655.7 299.975 649.3C299.975 643.3 304.875 639.3 311.075 639.3C318.875 639.3 323.175 645.5 323.175 655.9C323.175 668.8 315.775 678.5 301.875 682.7ZM362.934 662.52C334.674 662.52 315.414 638.4 315.414 592.32C315.414 546.24 334.674 523.56 362.934 523.56C391.194 523.56 410.274 546.42 410.274 592.32C410.274 638.4 391.194 662.52 362.934 662.52ZM362.934 637.68C372.474 637.68 380.034 629.04 380.034 592.32C380.034 555.78 372.474 548.04 362.934 548.04C353.394 548.04 345.654 555.78 345.654 592.32C345.654 629.04 353.394 637.68 362.934 637.68ZM463.621 662.52C435.361 662.52 416.101 638.4 416.101 592.32C416.101 546.24 435.361 523.56 463.621 523.56C491.881 523.56 510.961 546.42 510.961 592.32C510.961 638.4 491.881 662.52 463.621 662.52ZM463.621 637.68C473.161 637.68 480.721 629.04 480.721 592.32C480.721 555.78 473.161 548.04 463.621 548.04C454.081 548.04 446.341 555.78 446.341 592.32C446.341 629.04 454.081 637.68 463.621 637.68ZM564.309 662.52C536.049 662.52 516.789 638.4 516.789 592.32C516.789 546.24 536.049 523.56 564.309 523.56C592.569 523.56 611.649 546.42 611.649 592.32C611.649 638.4 592.569 662.52 564.309 662.52ZM564.309 637.68C573.849 637.68 581.409 629.04 581.409 592.32C581.409 555.78 573.849 548.04 564.309 548.04C554.769 548.04 547.029 555.78 547.029 592.32C547.029 629.04 554.769 637.68 564.309 637.68ZM615.152 609.696H665.392V617.312H622.896V665.76H615.152V609.696ZM661.68 609.696H669.488V656.736C669.488 660.896 668.592 663.072 665.904 664.352C663.28 665.568 659.44 665.76 653.68 665.76C653.36 663.584 652.016 660.064 650.928 658.08C654.64 658.272 658.8 658.208 660.08 658.208C661.296 658.208 661.68 657.824 661.68 656.672V609.696ZM619.376 633.504H665.456V641.12H619.376V633.504ZM638 613.856H645.68V637.28H638V613.856ZM738.336 601.36C738.336 603.92 740.416 606 742.976 606C745.536 606 747.616 603.92 747.616 601.36C747.616 598.8 745.536 596.72 742.976 596.72C740.416 596.72 738.336 598.8 738.336 601.36ZM733.376 601.36C733.376 596.08 737.696 591.76 742.976 591.76C748.256 591.76 752.576 596.08 752.576 601.36C752.576 606.64 748.256 610.96 742.976 610.96C737.696 610.96 733.376 606.64 733.376 601.36ZM743.136 607.68C742.336 609.2 741.776 611.52 741.376 613.2C739.536 621.04 736.016 633.52 729.296 642.4C722.096 652 711.456 659.92 697.136 664.48L688.416 654.88C704.336 651.2 713.376 644.24 719.776 636.16C725.136 629.52 728.176 620.4 729.216 613.52C724.336 613.52 697.936 613.52 691.936 613.52C688.256 613.52 684.496 613.76 682.416 613.92V602.56C684.816 602.88 689.296 603.28 691.936 603.28C697.936 603.28 724.496 603.28 728.976 603.28C730.576 603.28 733.136 603.2 735.216 602.64L743.136 607.68ZM768.096 656.88C768.976 654.88 769.136 653.52 769.136 651.68C769.136 645.6 769.136 617.2 769.136 608.24C769.136 605.28 768.656 601.44 768.176 599.2H780.736C780.336 602.24 780.016 605.2 780.016 608.24C780.016 617.12 780.016 643.76 780.016 649.84C793.056 646.16 810.896 635.92 821.136 623.36L826.816 632.48C815.856 645.52 799.216 655.12 780.336 661.28C779.296 661.6 777.536 662.16 775.616 663.44L768.096 656.88ZM892.736 594.64C894.736 597.52 897.616 602.64 899.056 605.6L892.656 608.32C891.056 605.04 888.576 600.32 886.416 597.2L892.736 594.64ZM902.176 591.04C904.336 594 907.216 599.12 908.656 601.92L902.336 604.64C900.656 601.28 898.096 596.64 895.856 593.6L902.176 591.04ZM852.256 650.88C852.256 644.32 852.256 617.36 852.256 607.6C852.256 604.88 852.016 600.8 851.616 598.4H863.536C863.216 600.8 862.896 604.88 862.896 607.6C862.896 617.28 862.896 639.2 862.896 648.08C862.896 653.12 864.256 654.8 873.056 654.8C881.456 654.8 890.336 653.76 898.256 652.16L897.936 663.04C891.296 664 881.776 664.8 873.136 664.8C854.896 664.8 852.256 660.4 852.256 650.88ZM902.656 615.76C901.936 616.88 900.736 618.72 900.016 620.08C896.496 626.8 889.216 637.76 883.456 643.44L874.656 638.24C879.936 633.52 885.216 626.16 887.456 622C882.576 623.04 845.536 630.32 835.456 632.64L833.536 622.08C844.336 620.8 882.016 613.44 889.296 611.68C891.536 611.12 893.456 610.64 894.976 609.76L902.656 615.76ZM928.576 599.2C934.096 602.96 944.496 611.28 949.216 616.16L941.056 624.48C936.896 620 926.816 611.28 920.976 607.28L928.576 599.2ZM918.496 652.48C931.056 650.72 941.376 646.64 949.136 642.08C962.816 633.92 973.216 621.76 978.336 610.96L984.496 622.16C978.496 633.04 967.856 644.08 954.976 651.84C946.816 656.72 936.496 661.12 925.296 663.04L918.496 652.48ZM1012.74 652.4C1012.74 646.24 1012.74 613.12 1012.74 606.4C1012.74 603.52 1012.5 599.6 1011.94 596.72H1024.42C1024.1 599.6 1023.7 603.04 1023.7 606.4C1023.7 615.2 1023.78 646.48 1023.78 652.4C1023.78 654.64 1024.1 660.24 1024.5 663.52H1011.94C1012.5 660.4 1012.74 655.52 1012.74 652.4ZM1021.38 617.44C1032.02 620.4 1049.3 626.72 1057.14 630.56L1052.66 641.68C1043.54 636.96 1030.1 631.84 1021.38 628.96V617.44Z" fill="white"/>
</g>
</g>
<defs>
<filter id="filter0_d_1213_2005" x="114.68" y="409.56" width="958.457" height="288.14" filterUnits="userSpaceOnUse" color-interpolation-filters="sRGB">
<feFlood flood-opacity="0" result="BackgroundImageFix"/>
<feColorMatrix in="SourceAlpha" type="matrix" values="0 0 0 0 0 0 0 0 0 0 0 0 0 0 0 0 0 0 127 0" result="hardAlpha"/>
<feOffset dx="8" dy="7"/>
<feGaussianBlur stdDeviation="4"/>
<feComposite in2="hardAlpha" operator="out"/>
<feColorMatrix type="matrix" values="0 0 0 0 0.382568 0 0 0 0 0.275521 0 0 0 0 0.239267 0 0 0 0.1 0"/>
<feBlend mode="normal" in2="BackgroundImageFix" result="effect1_dropShadow_1213_2005"/>
<feBlend mode="normal" in="SourceGraphic" in2="effect1_dropShadow_1213_2005" result="shape"/>
</filter>
<linearGradient id="paint0_linear_1213_2005" x1="1218.78" y1="644" x2="2063.87" y2="643.268" gradientUnits="userSpaceOnUse">
<stop offset="0.125" stop-color="#D4BF9E"/>
<stop offset="0.462907" stop-color="#C8AD82"/>
<stop offset="0.592566" stop-color="#BFA06E"/>
<stop offset="0.802083" stop-color="#BA9862"/>
<stop offset="0.895833" stop-color="#F4EDE1"/>
<stop offset="0.963585" stop-color="#B9965F"/>
</linearGradient>
<linearGradient id="paint1_linear_1213_2005" x1="-363.215" y1="101" x2="481.873" y2="100.268" gradientUnits="userSpaceOnUse">
<stop offset="0.125" stop-color="#D4BF9E"/>
<stop offset="0.462907" stop-color="#C8AD82"/>
<stop offset="0.592566" stop-color="#BFA06E"/>
<stop offset="0.802083" stop-color="#BA9862"/>
<stop offset="0.895833" stop-color="#F4EDE1"/>
<stop offset="0.963585" stop-color="#B9965F"/>
</linearGradient>
<clipPath id="clip0_1213_2005">
<rect width="1920" height="780" fill="white"/>
</clipPath>
</defs>
</svg>
