<svg width="395" height="241" viewBox="0 0 395 241" fill="none" xmlns="http://www.w3.org/2000/svg">
<g clip-path="url(#clip0_1222_2836)">
<path d="M322.395 127.72L316.338 104.215C314.765 98.1101 317.504 93.1892 322.765 91.7552C327.824 90.3797 332.879 92.1771 334.445 98.2579C335.419 102.041 339.339 103.168 342.884 102.256C344.691 101.698 346.203 100.446 347.087 98.7735C347.97 97.1014 348.154 95.1467 347.596 93.3394C345.599 85.5827 342.394 82.3147 338.328 79.0926C333.055 74.9111 325.976 74.3402 318.822 76.1834C312.554 77.7985 307.902 80.9576 305.044 85.1299C301.368 90.4955 301.116 97.6607 303.647 107.482L323.389 184.109L323.457 184.376C324.613 188.859 328.212 190.468 331.758 189.555C334.889 188.752 337.464 186.211 336.245 181.483L336.08 180.839L322.395 127.72Z" fill="white"/>
<path d="M326.367 90.8187L326.354 91.1248C327.473 91.1397 328.577 91.3836 329.598 91.8416C330.619 92.2995 331.536 92.9618 332.291 93.7875H332.307C335.812 90.4978 339.758 86.5994 343.097 83.4197C341.698 81.7346 340.111 80.2151 338.367 78.8908C335.141 76.4085 331.194 75.0452 327.124 75.0073C326.924 79.3826 326.504 88.0196 326.367 90.8187Z" fill="#F4693A"/>
<path d="M305.087 84.9246C303.224 87.7238 302.18 90.9873 302.07 94.3479C306.517 95.5297 311.71 96.9981 316.231 98.1443C316.757 95.9134 318.133 93.976 320.066 92.7443C318.532 90.2753 313.791 82.5736 311.557 78.9561C308.993 80.4526 306.785 82.4892 305.087 84.9246Z" fill="#F4693A"/>
<path d="M304.822 111.68L308.779 127.039C312.915 126.688 318.064 126.276 322.024 125.912L318.068 110.552C314.11 110.908 308.956 111.322 304.822 111.68Z" fill="#F4693A"/>
<path d="M312.736 142.4L316.693 157.76C320.825 157.393 325.978 156.989 329.939 156.633L325.982 141.273C322.024 141.629 316.871 142.041 312.736 142.4Z" fill="#F4693A"/>
<path d="M323.431 183.907L323.5 184.175C324.655 188.658 328.254 190.269 331.8 189.355C334.928 188.553 337.509 186.011 336.291 181.283L336.124 180.637L333.897 171.994C329.939 172.349 324.786 172.762 320.652 173.121L323.431 183.907Z" fill="#F4693A"/>
<path d="M324.605 127.11L319.663 107.927C318.601 103.81 316.638 98.4688 320.683 95.2673C323.727 92.8602 329.036 92.8705 331.213 96.3941C331.77 97.5153 332.23 98.6818 332.589 99.881C333.089 101.128 333.912 102.22 334.974 103.042C336.033 103.804 337.236 104.342 338.509 104.623C339.783 104.904 341.1 104.923 342.381 104.678C348.086 103.809 351.087 98.1009 349.804 92.7249C348.691 87.7342 346.14 83.1786 342.468 79.6198C338.453 75.6205 333.108 73.2368 327.449 72.9223C321.401 72.6716 315.41 74.1849 310.206 77.278C305.824 79.8337 302.49 83.8608 300.798 88.6431C298.991 94.0466 299.642 100.025 300.82 105.485C302.852 114.893 305.589 124.196 307.99 133.517L316.178 165.31L319.788 179.321C320.868 183.518 321.459 188.78 325.699 191.046C329.759 193.217 335.766 191.848 337.935 187.588C339.203 185.096 338.874 182.494 338.201 179.885L336.308 172.536L326.999 136.403L324.605 127.118C323.869 124.263 319.447 125.473 320.184 128.338L329.248 163.519L333.137 178.615C333.627 180.515 334.709 182.932 334.108 184.892C333.813 185.629 333.313 186.267 332.667 186.728C332.02 187.189 331.255 187.454 330.461 187.492C326.173 187.977 325.551 183.317 324.747 180.197L321.497 167.588L313.893 138.076L306.872 110.823C304.657 102.226 301.66 91.6624 308.591 84.3825C312.192 80.5999 317.265 78.5985 322.346 77.787C327.579 76.9502 333.021 77.7652 337.228 81.1432C340.581 83.6985 343.121 87.1718 344.54 91.142C345.328 93.4161 346.23 95.9964 344.769 98.1994C344.235 98.9595 343.498 99.5544 342.643 99.9165C341.788 100.279 340.848 100.393 339.931 100.248C337.718 100.006 337.049 98.7405 336.406 96.8182C335.673 94.4592 334.204 92.3971 332.213 90.9345C328.501 88.2981 323.1 88.5492 319.243 90.7522C317.259 91.9548 315.675 93.7176 314.691 95.8185C313.707 97.9195 313.367 100.265 313.714 102.559C314.151 105.157 314.757 107.725 315.528 110.244L317.739 118.831L320.188 128.33C320.915 131.185 325.342 129.975 324.605 127.11Z" fill="#ECECEC"/>
<path d="M361.062 131.28C361.815 129.226 361.645 127.171 360.635 124.261C360.214 123.135 359.631 122.076 358.905 121.118C357.313 119.01 354.297 118.498 351.702 118.997C336.605 121.899 320.888 125.34 303.505 129.705C302.339 130.062 301.307 130.763 300.546 131.716C299.785 132.669 299.33 133.83 299.24 135.047C299.248 138.896 299.451 139.816 300.807 144.343C301.911 148.032 304.512 149.578 307.586 148.991C324.092 145.841 344.703 141.758 357.09 137.923C358.087 136.788 358.972 135.559 359.734 134.255C360.377 132.959 361.062 131.28 361.062 131.28Z" fill="white"/>
<path d="M343.003 224.236C339.932 224.075 337.018 223.822 334.425 223.461C327.325 222.462 323.192 219.793 318.951 214.487C316.042 210.851 314.353 205.303 313.539 199.559C311.9 188.49 308.725 160.658 306.156 149.108C306.634 149.123 307.113 149.085 307.582 148.993C323.4 145.975 342.98 142.101 355.488 138.408C356.742 148.505 359.307 165.797 361.81 172.381C363.708 177.386 372.287 178.176 377.231 180.246C382.814 182.589 388.337 185.485 391.467 190.649C394.434 195.886 395.314 202.049 393.933 207.906C391.96 215.586 386.229 220.764 378.5 222.501C372.238 223.918 356.166 224.925 343.003 224.236Z" fill="#F4693A"/>
<path d="M363.274 131.89C364.65 127.859 363.242 123.011 360.707 119.73C357.841 116.019 353.27 116.361 349.163 117.161C339.534 119.035 329.937 121.076 320.372 123.283C314.533 124.629 308.708 126.032 302.896 127.494C300.031 128.212 301.248 132.635 304.115 131.915C313.081 129.667 322.077 127.55 331.105 125.565C335.333 124.64 339.568 123.748 343.808 122.887C345.837 122.476 347.867 122.072 349.897 121.676C351.57 121.158 353.339 121.026 355.07 121.291C358.555 122.215 359.895 127.605 358.853 130.67C357.901 133.471 362.327 134.672 363.274 131.89Z" fill="#ECECEC"/>
<path d="M221.323 4.0408C220.683 5.313 220.137 6.63099 219.692 7.98391C219.259 9.20926 218.852 10.4426 218.494 11.6978C218.255 12.3947 218.161 13.133 218.217 13.8676C218.341 14.8202 219.913 16.6794 220.561 17.366H286.139C287.211 16.4144 288.027 15.2098 288.514 13.8619C288.57 13.1273 288.475 12.3891 288.237 11.692C287.878 10.4312 287.471 9.20353 287.039 7.97818C286.064 5.21686 284.789 1.74028 282.11 0.622681C280.32 -0.124676 278.318 0.371652 276.476 0.944778C268.806 3.52304 261.429 6.90413 254.468 11.0318C254.114 11.2354 253.715 11.3461 253.307 11.3535C252.899 11.3609 252.495 11.2648 252.134 11.0742C245.027 7.35691 238.015 3.37025 230.247 0.950509C228.405 0.377383 226.405 -0.118944 224.614 0.628412C223.157 1.35325 221.995 2.5585 221.323 4.0408Z" fill="#F4693A"/>
<path d="M303.815 18.621C303.819 18.4614 303.791 18.3026 303.733 18.1539C303.675 18.0051 303.588 17.8692 303.477 17.7541C303.367 17.639 303.234 17.5468 303.088 17.483C302.942 17.4191 302.784 17.3848 302.624 17.3819L204.676 17.3647C204.517 17.3676 204.36 17.4019 204.214 17.4657C204.068 17.5295 203.936 17.6215 203.826 17.7364C203.716 17.8514 203.63 17.987 203.572 18.1355C203.514 18.284 203.487 18.4424 203.491 18.6016C203.483 23.5408 203.438 38.128 203.424 42.486C203.42 42.6456 203.447 42.8045 203.504 42.9535C203.561 43.1026 203.647 43.2389 203.757 43.3544C203.867 43.47 203.999 43.5626 204.145 43.6268C204.291 43.691 204.449 43.7256 204.608 43.7285H208.791C208.823 77.4501 209.028 200.331 209.028 212.327C223.659 212.327 289.725 212.88 298.76 212.88C298.76 204.926 298.824 77.1166 298.837 43.693H302.699C302.859 43.6893 303.016 43.654 303.163 43.5892C303.309 43.5243 303.441 43.4312 303.551 43.3152C303.661 43.1992 303.747 43.0626 303.804 42.9132C303.861 42.7638 303.888 42.6046 303.883 42.4447C303.868 38.3973 303.821 25.4917 303.815 18.621Z" fill="#74C66D"/>
<path d="M210.492 46.0196C222.387 46.0151 234.282 46.0116 246.177 46.0093C249.126 46.0093 249.132 41.4243 246.177 41.4243C234.281 41.4243 222.386 41.4278 210.492 41.4346C207.541 41.4346 207.537 46.0196 210.492 46.0196Z" fill="#5BB252"/>
<path d="M261.721 45.998C273.489 45.998 285.26 45.9949 297.035 45.9888C299.984 45.9888 299.99 41.4038 297.035 41.4038C285.266 41.4084 273.495 41.4114 261.721 41.413C258.77 41.413 258.765 45.998 261.721 45.998Z" fill="#5BB252"/>
<path d="M246.172 15.7476C246.191 32.8187 246.286 192.472 246.299 212.522C251.457 212.564 256.749 212.608 261.85 212.651C261.831 192.634 261.736 32.8634 261.72 15.7533C256.588 15.7521 251.322 15.751 246.172 15.7476Z" fill="#F4693A"/>
<path d="M76.1605 90.9634C75.702 91.9629 75.3318 93.0037 74.9948 93.9597C74.5615 95.185 74.1557 96.4184 73.797 97.6735C73.558 98.3701 73.4636 99.108 73.5196 99.8423C73.6995 101.23 76.9583 104.542 75.9462 103.349H141.43C142.508 102.396 143.328 101.189 143.817 99.8365C143.873 99.1023 143.779 98.3643 143.54 97.6678C143.181 96.4127 142.774 95.1793 142.342 93.954C141.366 91.1926 140.092 87.7161 137.413 86.5985C135.622 85.85 133.621 86.3463 131.779 86.9205C124.108 89.4983 116.731 92.8794 109.771 97.0076C109.417 97.211 109.017 97.3215 108.609 97.3287C108.201 97.3359 107.798 97.2396 107.437 97.0488C100.322 93.3201 93.3108 89.3391 85.5438 86.9194C83.7006 86.3463 81.7004 85.8488 79.9099 86.5973C78.1602 87.5351 76.8232 89.092 76.1605 90.9634Z" fill="#F4693A"/>
<path d="M176.03 104.596C176.033 104.436 176.005 104.277 175.947 104.129C175.889 103.98 175.802 103.844 175.691 103.729C175.581 103.614 175.448 103.522 175.302 103.459C175.156 103.395 174.998 103.361 174.839 103.358L42.4914 103.339C42.3321 103.342 42.1751 103.377 42.0293 103.441C41.8835 103.505 41.7517 103.597 41.6416 103.712C41.5315 103.827 41.4451 103.963 41.3876 104.111C41.33 104.26 41.3023 104.418 41.3061 104.577C41.2981 109.517 41.2534 124.104 41.2408 128.462C41.2359 128.621 41.2628 128.78 41.3199 128.929C41.3769 129.078 41.463 129.215 41.5732 129.33C41.6834 129.446 41.8154 129.538 41.9616 129.602C42.1078 129.666 42.2653 129.7 42.4249 129.703H46.6179C46.6626 149.662 46.8471 200.879 46.8471 212.326C61.479 212.326 161.937 212.879 170.969 212.879C170.969 205.444 171.024 149.399 171.042 129.671H174.908C175.067 129.668 175.225 129.633 175.371 129.568C175.517 129.503 175.649 129.41 175.76 129.294C175.87 129.178 175.956 129.042 176.013 128.892C176.07 128.743 176.097 128.584 176.092 128.424C176.077 124.373 176.03 111.466 176.03 104.596Z" fill="#74C66D"/>
<path d="M49.2536 131.991C66.4543 131.991 83.6553 131.987 100.857 131.98C103.806 131.98 103.812 127.395 100.857 127.395C83.6546 127.401 66.4535 127.405 49.2536 127.406C46.3032 127.406 46.2986 131.991 49.2536 131.991Z" fill="#5BB252"/>
<path d="M116.398 131.98C134.071 131.973 151.744 131.967 169.417 131.962C172.367 131.962 172.372 127.377 169.417 127.377C151.744 127.388 134.071 127.394 116.398 127.395C113.448 127.395 113.443 131.98 116.398 131.98Z" fill="#5BB252"/>
<path d="M100.836 101.716C100.855 118.787 100.951 192.472 100.963 212.522C106.121 212.563 111.415 212.608 116.516 212.651C116.495 192.634 116.401 118.832 116.385 101.722C111.246 101.721 105.98 101.72 100.836 101.716Z" fill="#F4693A"/>
<path d="M363.367 197.061C363.367 203.932 363.419 228.301 363.435 232.35C363.44 232.51 363.413 232.669 363.356 232.818C363.299 232.968 363.213 233.104 363.103 233.22C362.993 233.336 362.861 233.43 362.715 233.494C362.568 233.559 362.411 233.595 362.251 233.598L275.624 233.633C275.464 233.63 275.307 233.595 275.161 233.531C275.015 233.467 274.883 233.374 274.773 233.259C274.663 233.143 274.576 233.007 274.519 232.858C274.462 232.709 274.435 232.55 274.44 232.39C274.453 228.034 274.497 201.982 274.505 197.043C274.502 196.884 274.529 196.726 274.587 196.577C274.644 196.429 274.731 196.293 274.841 196.178C274.951 196.063 275.083 195.971 275.228 195.907C275.374 195.843 275.531 195.808 275.691 195.805C285.295 195.805 350.396 195.822 362.176 195.824C362.336 195.826 362.493 195.861 362.64 195.924C362.786 195.988 362.918 196.08 363.029 196.195C363.14 196.31 363.226 196.446 363.284 196.595C363.343 196.743 363.371 196.902 363.367 197.061Z" fill="white"/>
<path d="M361.131 228.718C361.131 229.442 361.131 230.168 361.131 230.896C361.11 231.167 361.11 231.44 361.131 231.712V231.886C361.087 232.46 361.429 232.266 362.157 231.305C362.001 231.19 361.354 231.305 361.16 231.305H358.72H351.451L330.589 231.314L285.956 231.335H278.249C277.438 231.219 276.614 231.219 275.803 231.335H275.755C275.253 231.325 275.58 231.636 276.735 232.265C276.759 232.066 276.759 231.864 276.735 231.665C276.735 231.145 276.735 230.626 276.735 230.107C276.735 228.905 276.735 227.703 276.735 226.5C276.735 223.549 272.15 223.545 272.15 226.5C272.15 228.448 272.007 230.443 272.142 232.385C272.314 234.874 274.152 235.921 276.425 235.92H282.523L303.041 235.91L350.872 235.892H359.41C360.282 235.892 361.161 235.929 362.031 235.892C362.767 235.917 363.494 235.713 364.11 235.307C364.726 234.902 365.201 234.316 365.469 233.629C365.996 232.161 365.716 230.264 365.714 228.723C365.714 225.773 361.129 225.768 361.129 228.723L361.131 228.718Z" fill="#ECECEC"/>
<path d="M276.757 226.501C276.761 223.75 276.766 221.002 276.772 218.258C276.772 217.65 276.53 217.067 276.1 216.637C275.67 216.207 275.087 215.965 274.479 215.965C273.871 215.965 273.288 216.207 272.858 216.637C272.428 217.067 272.187 217.65 272.187 218.258C272.182 221.009 272.177 223.756 272.172 226.501C272.172 227.109 272.413 227.692 272.843 228.122C273.273 228.552 273.856 228.793 274.464 228.793C275.072 228.793 275.655 228.552 276.085 228.122C276.515 227.692 276.757 227.109 276.757 226.501Z" fill="#ECECEC"/>
<path d="M364.489 209.792C356.006 218.274 347.639 226.862 339.157 235.345C337.068 237.434 340.31 240.678 342.399 238.587C350.882 230.105 359.249 221.516 367.731 213.033C369.82 210.944 366.578 207.701 364.489 209.792Z" fill="#ECECEC"/>
<path d="M157.868 144.937C157.171 146.274 156.586 147.666 156.118 149.099C155.686 150.325 155.279 151.559 154.92 152.813C154.681 153.51 154.587 154.248 154.643 154.982C154.824 156.371 158.081 159.682 157.069 158.488L222.547 158.498C223.627 157.546 224.45 156.337 224.94 154.982C224.996 154.248 224.901 153.51 224.663 152.813C224.304 151.559 223.898 150.325 223.465 149.099C222.49 146.337 221.216 142.861 218.536 141.743C216.745 140.996 214.745 141.492 212.903 142.066C205.232 144.644 197.855 148.026 190.895 152.153C190.541 152.357 190.142 152.468 189.734 152.475C189.326 152.483 188.922 152.387 188.561 152.196C181.445 148.466 174.435 144.485 166.668 142.066C164.826 141.493 162.825 140.996 161.034 141.743C159.651 142.423 158.536 143.548 157.868 144.937Z" fill="#F4693A"/>
<path d="M234.221 159.736C234.224 159.577 234.196 159.418 234.138 159.269C234.08 159.121 233.993 158.985 233.882 158.87C233.772 158.755 233.64 158.662 233.493 158.599C233.347 158.535 233.19 158.5 233.03 158.497C221.25 158.497 156.15 158.482 146.545 158.48C146.386 158.483 146.229 158.517 146.083 158.581C145.937 158.645 145.806 158.737 145.695 158.852C145.585 158.967 145.499 159.103 145.441 159.251C145.384 159.399 145.356 159.558 145.36 159.717C145.352 164.657 145.307 179.244 145.293 183.601C145.289 183.761 145.316 183.92 145.373 184.069C145.43 184.218 145.516 184.354 145.627 184.469C145.737 184.585 145.868 184.677 146.015 184.742C146.161 184.806 146.318 184.841 146.478 184.844H150.672C150.727 198.229 150.901 222.124 150.901 233.077C165.532 233.077 220.135 233.629 229.169 233.629C229.169 226.696 229.217 198.109 229.239 184.812H233.108C233.268 184.808 233.425 184.773 233.572 184.708C233.718 184.643 233.85 184.55 233.96 184.434C234.07 184.318 234.156 184.181 234.213 184.032C234.27 183.883 234.297 183.723 234.292 183.563C234.274 179.514 234.227 166.607 234.221 159.736Z" fill="#74C66D"/>
<path d="M152.509 156.19H148.71C147.382 156.19 145.862 155.984 144.688 156.737C142.648 158.048 143.067 160.714 143.061 162.802C143.049 167.47 143.035 172.138 143.02 176.806C143.016 178.711 143.01 180.616 143.004 182.521C142.897 183.544 143.083 184.576 143.542 185.496C143.918 186.043 144.43 186.483 145.029 186.77C145.627 187.058 146.291 187.184 146.953 187.136C151.086 187.251 155.241 187.136 159.377 187.136C167.036 187.136 174.694 187.133 182.351 187.126C185.302 187.126 185.307 182.541 182.351 182.541C171.662 182.548 160.972 182.551 150.282 182.552H147.313C147.193 182.542 147.073 182.542 146.953 182.552H146.705C146.197 182.534 146.491 182.827 147.587 183.431C147.68 182.855 147.68 182.268 147.587 181.691L147.594 179.127L147.631 166.549C147.637 164.631 147.642 162.714 147.648 160.798C147.657 160.645 147.657 160.492 147.648 160.339V160.019C147.672 159.533 147.405 159.785 146.845 160.773C147.088 160.979 148.346 160.773 148.707 160.773H152.505C155.456 160.773 155.46 156.188 152.505 156.188L152.509 156.19Z" fill="#5BB252"/>
<path d="M197.896 187.121C208.849 187.113 219.803 187.106 230.757 187.102C232.388 187.102 234.325 187.361 235.571 186.064C236.953 184.62 236.584 182.354 236.578 180.518C236.563 175.873 236.549 171.228 236.535 166.582L236.524 162.57C236.637 161.313 236.594 160.047 236.395 158.801C235.44 155.238 230.543 156.209 227.787 156.209C224.836 156.209 224.832 160.794 227.787 160.794H231.621C231.745 160.794 232.568 160.824 232.58 160.794C232.483 161.018 232.205 159.036 231.935 160.046C231.884 160.477 231.884 160.914 231.935 161.346C231.939 163.361 231.944 165.375 231.95 167.39C231.962 171.562 231.975 175.734 231.989 179.905L231.996 182.043V182.973C231.996 184.349 232.291 182.277 232.878 182.515C232.405 182.445 231.925 182.445 231.452 182.515H229.307L217.089 182.521C210.69 182.521 204.293 182.525 197.896 182.532C194.946 182.532 194.941 187.117 197.896 187.117V187.121Z" fill="#5BB252"/>
<path d="M231.491 210.807C231.507 202.819 231.523 194.831 231.538 186.842C231.538 183.892 226.953 183.887 226.953 186.842C226.953 194.83 226.938 202.819 226.906 210.807C226.906 213.758 231.491 213.762 231.491 210.807Z" fill="#5BB252"/>
<path d="M148.363 186.842C148.363 195.277 148.447 203.712 148.505 212.145C148.526 215.094 153.111 215.101 153.09 212.145C153.032 203.712 152.943 195.277 152.948 186.842C152.948 183.892 148.363 183.887 148.363 186.842Z" fill="#5BB252"/>
<path d="M182.311 156.546C182.33 173.616 182.425 213.221 182.439 233.273C187.597 233.314 192.889 233.359 197.99 233.401C197.969 213.384 197.876 173.661 197.859 156.552L182.311 156.546Z" fill="#F4693A"/>
<path d="M28.4684 178.127C27.4104 172.329 26.0796 167.713 24.7019 162.079C24.0726 159.509 24.4451 157.15 26.9795 156.197C28.5556 155.604 42.6315 157.84 47.7828 155.509C48.9031 155.002 50.1186 154.74 51.3482 154.74C52.5778 154.74 53.7933 155.002 54.9136 155.509C60.0649 157.841 65.9887 159.513 70.9222 156.756C71.6329 156.321 72.4297 156.045 73.2575 155.949C74.0853 155.853 74.9241 155.937 75.7158 156.198C78.2502 157.153 78.6227 159.51 77.9934 162.08C76.6718 167.487 71.4013 180.972 70.3135 186.639C75.09 202.686 80.0441 215.582 79.197 228.955C79.056 231.184 79.2508 233.109 77.4627 234.449C71.5423 238.888 33.3469 238.985 24.86 235.431C22.7968 234.568 23.1407 232.234 22.9802 230.005C22.2661 219.975 25.8011 204.406 31.1495 193.135L30.0182 186.165L28.4684 178.127Z" fill="white"/>
<path d="M76.4762 218.407C76.8117 220.89 76.9867 223.391 77 225.897C77 227.065 76.9404 228.228 76.8854 229.394C76.9462 230.261 76.8495 231.133 76.6 231.966C76.4752 232.27 76.2557 232.525 75.9741 232.694C75.8492 232.778 75.7105 232.837 75.5821 232.913C75.5007 232.961 75.0159 233.181 75.338 233.038C75.6819 232.888 75.1018 233.128 75.0308 233.152C74.8714 233.209 74.7121 233.267 74.5516 233.319C74.1367 233.455 73.7172 233.574 73.2908 233.685C68.6312 234.755 63.8733 235.339 59.0933 235.427C53.1259 235.73 47.1356 235.739 41.167 235.456C36.5553 235.397 31.9621 234.859 27.4613 233.852C26.8974 233.707 25.7649 233.471 25.5711 233.164C25.3256 232.466 25.2394 231.722 25.319 230.986C25.28 229.925 25.1975 228.867 25.1849 227.804C25.2184 222.414 25.8917 217.046 27.1908 211.815C27.8487 208.949 23.4299 207.717 22.7697 210.596C21.5299 215.704 20.8068 220.924 20.6113 226.176C20.5541 228.291 20.6226 230.407 20.8165 232.513C20.8154 233.512 21.0829 234.494 21.591 235.354C22.0992 236.215 22.8293 236.923 23.705 237.405C25.5356 238.184 27.469 238.694 29.4455 238.92C32.1965 239.362 34.9727 239.641 37.7501 239.837C44.2023 240.278 50.6738 240.364 57.1355 240.096C62.8088 240.029 68.4618 239.404 74.0129 238.23C76.2676 237.686 78.6896 236.918 80.1133 234.963C81.5839 232.947 81.4486 230.221 81.5438 227.839C81.647 224.687 81.4841 221.532 81.0566 218.407C81.0377 217.805 80.7901 217.233 80.3642 216.807C79.9383 216.381 79.3661 216.133 78.7641 216.114C78.157 216.117 77.5757 216.36 77.1464 216.789C76.7171 217.219 76.4746 217.8 76.4716 218.407H76.4762Z" fill="#ECECEC"/>
<path d="M27.475 163.731C27.3222 163.119 27.1694 162.508 27.0165 161.897C26.9535 161.64 26.8882 161.384 26.8331 161.126C26.8125 161.028 26.7185 160.278 26.7586 160.74C26.7197 160.323 26.7174 159.903 26.7518 159.485C26.7036 160.007 26.7839 159.41 26.8091 159.321C26.8446 159.19 27.0784 158.741 26.8446 159.159C26.9313 158.992 27.029 158.83 27.1369 158.676C26.8354 159.078 27.2114 158.649 27.2985 158.57C26.9546 158.88 27.4212 158.516 27.5129 158.456C27.7582 158.296 27.6458 158.348 27.6722 158.375C27.7054 158.366 27.7391 158.359 27.7731 158.354C27.3146 158.41 27.177 158.427 27.373 158.407C27.4877 158.414 27.6229 158.389 27.7433 158.385C28.0195 158.374 28.2958 158.385 28.5732 158.385C32.6848 158.476 36.7712 158.946 40.8908 158.871C41.4988 158.871 42.0819 158.629 42.5118 158.199C42.9418 157.769 43.1833 157.186 43.1833 156.578C43.1833 155.97 42.9418 155.387 42.5118 154.957C42.0819 154.527 41.4988 154.286 40.8908 154.286C38.2544 154.334 35.618 154.201 32.9816 154.04C31.2033 153.859 29.416 153.78 27.6286 153.804C26.5143 153.878 25.4449 154.272 24.5487 154.938C23.6525 155.605 22.9675 156.516 22.576 157.562C21.6314 159.969 22.4533 162.562 23.0528 164.945C23.2144 165.531 23.6022 166.029 24.131 166.329C24.6599 166.63 25.2863 166.707 25.8726 166.546C26.4589 166.384 26.9569 165.996 27.2572 165.468C27.5575 164.939 27.6355 164.312 27.4739 163.726L27.475 163.731Z" fill="#ECECEC"/>
<path d="M53.4265 187.439C52.4109 186.669 51.4905 185.979 50.6858 185.387C41.7451 191.964 18.4028 210.648 11.1103 217.611C7.53403 214.133 4.00357 210.226 0.423828 206.758C9.53539 199.125 25.7766 189.038 33.1814 185.8C28.9758 185.211 27.2209 185.722 24.3667 184.274C23.6928 183.898 23.1416 183.336 22.7792 182.654C22.505 182.11 22.3488 181.514 22.3207 180.905C22.2883 177.473 23.0618 174.081 24.5788 171.002C26.0552 167.915 27.9476 166.701 31.0379 167.487C32.8068 168.034 34.501 168.798 36.0814 169.763C39.3037 171.658 42.322 173.88 45.0887 176.394L46.2235 177.26C46.4933 176.764 46.9454 176.392 47.4844 176.223C49.4901 175.694 51.5985 175.694 53.6042 176.223C53.9563 176.363 54.2764 176.573 54.5453 176.841L55.3133 176.128C57.9903 173.705 60.9157 171.571 64.0408 169.763C65.5989 168.799 67.2718 168.035 69.0201 167.488C72.0749 166.701 73.949 167.915 75.4025 171.002C76.9033 174.085 77.6673 177.476 77.6342 180.905C77.6047 181.514 77.4485 182.11 77.1757 182.654C76.8196 183.334 76.2747 183.897 75.6065 184.274C73.0206 185.601 71.3505 185.283 67.8922 185.673C75.1503 188.762 91.7125 199.018 100.949 206.758C97.3715 210.226 93.8422 214.133 90.2625 217.611C83.6245 211.275 63.6969 195.228 53.4265 187.439Z" fill="#F4693A"/>
</g>
<defs>
<clipPath id="clip0_1222_2836">
<rect width="394.154" height="240" fill="white" transform="translate(0.423828 0.25)"/>
</clipPath>
</defs>
</svg>
