<svg width="302" height="201" viewBox="0 0 302 201" fill="none" xmlns="http://www.w3.org/2000/svg">
<g clip-path="url(#clip0_1222_2758)">
<path d="M278.839 167.239H47.6056C41.2737 167.239 34.9609 165.806 34.9609 162.779V157.404L39.7135 154.933C46.602 151.352 60.7126 144.168 65.7302 142.079L68.528 140.914V4.75659C68.528 4.03722 68.8138 3.34731 69.3225 2.83864C69.8312 2.32996 70.5211 2.04419 71.2404 2.04419H262.971C263.327 2.0438 263.68 2.11356 264.009 2.24946C264.338 2.38537 264.637 2.58477 264.888 2.83626C265.14 3.08774 265.34 3.3864 265.476 3.71514C265.613 4.04388 265.683 4.39628 265.683 4.75218V140.207L268.94 142.076C273.958 144.165 288.069 151.353 294.957 154.931L299.71 157.401V162.776C299.71 165.803 293.401 167.236 285.395 167.236H54.1613" fill="white"/>
<path d="M267.449 138.079V6.46843C267.449 4.90755 267.531 3.36286 266.517 2.042C266.084 1.48973 265.531 1.04351 264.9 0.737306C264.268 0.431098 263.575 0.272972 262.873 0.274963C261.046 0.219743 259.208 0.274963 257.379 0.274963H76.0945C74.4865 0.274963 72.8645 0.213853 71.2565 0.274963C70.0726 0.294001 68.9423 0.771732 68.1036 1.60755C67.2649 2.44337 66.7833 3.57204 66.7601 4.75588C66.7417 5.23371 66.7601 5.71302 66.7601 6.1938V43.133C66.7601 45.4073 70.2942 45.411 70.2942 43.133V6.19601C70.2942 5.25212 70.0387 3.88487 71.3412 3.81125C71.9147 3.77885 72.4993 3.81125 73.0729 3.81125H261.094C261.677 3.81125 262.272 3.78106 262.852 3.81125C264.382 3.89076 263.915 6.22252 263.915 7.33354V138.079C263.915 140.352 267.449 140.356 267.449 138.079Z" fill="#656565"/>
<path d="M178.552 155.773H155.654C153.38 155.773 153.376 159.307 155.654 159.307H178.552C180.827 159.307 180.83 155.773 178.552 155.773Z" fill="#656565"/>
<path d="M71.9214 159.513H99.3105H129.917C134.914 159.513 139.911 159.512 144.908 159.509C147.183 159.509 147.186 155.975 144.908 155.975C135.533 155.978 126.158 155.98 116.783 155.981C106.649 155.981 96.5159 155.981 86.3824 155.981H71.9214C69.6478 155.981 69.6441 159.515 71.9214 159.515V159.513Z" fill="#656565"/>
<path d="M188.976 159.513H224.557H267.928C273.923 159.513 279.917 159.512 285.911 159.509C288.185 159.509 288.189 155.975 285.911 155.975C273.804 155.979 261.698 155.981 249.591 155.981C235.203 155.981 220.815 155.981 206.428 155.981H188.978C186.704 155.981 186.701 159.515 188.978 159.515L188.976 159.513Z" fill="#656565"/>
<path d="M71.6583 144.314H185.838H208.447H228.448H244.419C247.996 144.314 251.573 144.314 255.15 144.314H256.799C259.073 144.314 259.076 140.78 256.799 140.78H247.57H232.687H213.604H71.6583C69.384 140.78 69.3803 144.314 71.6583 144.314Z" fill="#656565"/>
<path d="M298.358 159.453C298.358 160.465 298.35 161.477 298.358 162.489C298.358 162.613 298.358 162.736 298.358 162.857C298.358 162.912 298.415 162.769 298.316 162.946C298.086 163.26 297.783 163.512 297.432 163.682C295.902 164.431 294.25 164.897 292.554 165.058C290.319 165.358 288.066 165.495 285.812 165.47C284.823 165.47 283.835 165.47 282.846 165.47H70.3575C68.0832 165.47 68.0795 169.004 70.3575 169.004H285.475C287.211 169.004 288.947 168.959 290.678 168.805C293.936 168.517 298.345 168.119 300.738 165.562C302.284 163.908 301.893 161.532 301.893 159.451C301.893 157.178 298.358 157.174 298.358 159.451V159.453Z" fill="#656565"/>
<path d="M268.468 143.78C268.053 143.606 268.786 143.918 268.934 143.982C269.252 144.122 269.569 144.264 269.886 144.408C270.599 144.731 271.309 145.061 272.017 145.397C273.741 146.211 275.457 147.041 277.165 147.888C281.013 149.784 284.846 151.712 288.663 153.673C290.466 154.596 292.266 155.524 294.063 156.456C296.078 157.504 297.867 154.455 295.846 153.405C288.678 149.678 281.477 145.987 274.174 142.522C272.599 141.774 271.016 141.045 269.407 140.372C268.955 140.25 268.473 140.311 268.067 140.543C267.66 140.774 267.36 141.156 267.234 141.607C267.121 142.058 267.186 142.535 267.416 142.94C267.646 143.344 268.022 143.645 268.467 143.78H268.468Z" fill="#656565"/>
<path d="M79.2676 14.359V41.1399C79.2674 41.3599 79.3165 41.5771 79.4113 41.7756C79.5061 41.9741 79.6442 42.1489 79.8154 42.287C79.9866 42.4251 80.1865 42.5232 80.4006 42.5739C80.6146 42.6246 80.8373 42.6267 81.0523 42.5801C105.217 37.3327 148.188 28.0521 148.907 27.91C152.882 27.1259 156.287 29.8846 156.912 32.3335C159.607 42.8974 172.3 99.8785 174.651 112.905C175.102 115.4 173.877 120.06 170.112 120.973C167.713 121.554 156.513 123.968 143.029 126.838C142.673 126.913 142.358 127.118 142.145 127.412C141.931 127.707 141.834 128.069 141.872 128.431C141.909 128.793 142.08 129.127 142.35 129.371C142.62 129.615 142.97 129.75 143.334 129.75C185.681 129.75 235.146 129.75 252.858 129.741C253.249 129.741 253.624 129.586 253.9 129.31C254.176 129.034 254.331 128.659 254.331 128.269V14.359C254.331 13.9685 254.176 13.5939 253.9 13.3178C253.624 13.0416 253.249 12.8865 252.858 12.8865H80.7401C80.3496 12.8865 79.975 13.0416 79.6989 13.3178C79.4227 13.5939 79.2676 13.9685 79.2676 14.359Z" fill="#ECECEC"/>
<path d="M182.532 78.3871C184.727 83.8229 186.824 89.3044 189.145 94.6887C189.298 94.9576 189.52 95.1807 189.788 95.3346C190.057 95.4886 190.361 95.5678 190.671 95.5641C198.805 95.5641 206.942 95.5987 215.073 95.6164C216.591 95.6194 218.11 95.6218 219.629 95.6238C221.903 95.6238 221.907 92.0897 219.629 92.0897C211.63 92.0897 203.631 92.0536 195.632 92.0374C193.978 92.034 192.324 92.0315 190.671 92.0301L192.197 92.9048C192.142 92.8068 192.098 92.7034 192.064 92.5963C192.01 92.2281 192.198 92.918 192.04 92.5388C191.932 92.2797 191.824 92.0207 191.717 91.7621C191.444 91.1053 191.174 90.4473 190.907 89.7881C190.277 88.242 189.651 86.6941 189.029 85.1445C187.999 82.5794 186.975 80.0105 185.937 77.4476C185.8 77.0036 185.499 76.6285 185.095 76.3991C184.691 76.1696 184.215 76.103 183.764 76.2129C183.314 76.3403 182.932 76.6399 182.701 77.0468C182.47 77.4537 182.408 77.9352 182.53 78.3871H182.532Z" fill="#1E0E05"/>
<path d="M195.91 81.0565C204.044 81.0565 212.181 81.0911 220.312 81.1088C221.83 81.1118 223.349 81.1142 224.869 81.1162C227.143 81.1162 227.147 77.5821 224.869 77.5821C216.869 77.5821 208.87 77.546 200.871 77.5298C199.217 77.5269 197.563 77.5244 195.91 77.5225C193.636 77.5225 193.632 81.0565 195.91 81.0565Z" fill="#1E0E05"/>
<path d="M192.727 105.431C202.151 105.431 211.575 105.327 220.995 105.283C221.466 105.283 221.946 105.306 222.417 105.278C222.863 105.23 223.287 105.059 223.641 104.784C223.995 104.509 224.266 104.141 224.424 103.721C225.225 102.155 225.941 100.546 226.569 98.9023C228.734 93.6637 230.731 88.356 232.76 83.0637C233.864 80.1864 234.963 77.3083 236.091 74.4406C236.518 73.3568 236.948 72.2737 237.393 71.1973L237.504 70.9293C237.696 70.4625 237.42 71.1252 237.537 70.8505C237.61 70.6716 237.69 70.492 237.768 70.3138C237.901 70.0105 238.037 69.7086 238.182 69.4104L236.656 70.2858C239.144 70.2858 241.632 70.2858 244.12 70.2858C246.394 70.2858 246.398 66.7517 244.12 66.7517C241.632 66.7517 239.144 66.7517 236.656 66.7517C236.347 66.7497 236.043 66.8297 235.775 66.9835C235.507 67.1373 235.285 67.3594 235.131 67.6272C232.995 72.0116 231.421 76.7296 229.676 81.279C227.468 87.0359 225.31 92.8178 222.934 98.5076C222.88 98.6387 222.825 98.7695 222.77 98.9001C222.949 98.4745 222.717 99.023 222.684 99.1011C222.586 99.3322 222.486 99.5629 222.384 99.7932C222.185 100.248 221.982 100.702 221.767 101.151C221.613 101.473 221.458 101.797 221.279 102.108C221.208 102.206 221.145 102.31 221.089 102.417C220.984 102.693 221.457 102.028 221.196 102.264L222.448 101.749C214.128 101.749 205.808 101.842 197.488 101.884C195.903 101.892 194.318 101.903 192.732 101.903C190.458 101.903 190.455 105.437 192.732 105.437L192.727 105.431Z" fill="#1E0E05"/>
<path d="M196.007 107.511C195.461 107.501 194.919 107.6 194.413 107.803C193.907 108.006 193.446 108.309 193.06 108.693C192.673 109.078 192.367 109.537 192.162 110.042C191.956 110.547 191.854 111.089 191.862 111.634C191.862 114.206 193.465 115.831 196.007 115.831C198.608 115.831 200.153 114.206 200.153 111.634C200.161 111.089 200.059 110.547 199.854 110.042C199.648 109.536 199.343 109.077 198.956 108.692C198.569 108.307 198.108 108.005 197.602 107.802C197.095 107.599 196.553 107.5 196.007 107.511Z" fill="#1E0E05"/>
<path d="M219.364 107.511C218.819 107.501 218.277 107.6 217.77 107.803C217.264 108.006 216.804 108.309 216.417 108.694C216.03 109.078 215.725 109.537 215.519 110.042C215.313 110.547 215.211 111.089 215.219 111.634C215.219 114.206 216.823 115.831 219.364 115.831C221.966 115.831 223.51 114.206 223.51 111.634C223.519 111.089 223.417 110.547 223.211 110.041C223.006 109.536 222.7 109.077 222.313 108.692C221.926 108.307 221.466 108.004 220.959 107.801C220.452 107.599 219.91 107.5 219.364 107.511Z" fill="#1E0E05"/>
<path d="M209.182 26.5413C206.748 26.493 204.33 26.9347 202.071 27.8402C199.813 28.7457 197.759 30.0964 196.033 31.8119C194.307 33.5275 192.943 35.5728 192.024 37.8261C191.105 40.0794 190.648 42.4947 190.681 44.9281C190.681 56.4057 197.838 63.6602 209.183 63.6602C220.792 63.6602 227.684 56.4057 227.684 44.9281C227.72 42.4939 227.264 40.0774 226.346 37.8229C225.427 35.5684 224.064 33.5221 222.337 31.8061C220.61 30.09 218.555 28.7394 216.295 27.8349C214.035 26.9304 211.616 26.4904 209.182 26.5413Z" fill="#6DBF6B"/>
<path d="M199.773 47.1127C201.552 48.7987 203.349 50.4767 205.2 52.0832C205.54 52.3991 205.986 52.5746 206.45 52.5746C206.913 52.5746 207.36 52.3991 207.699 52.0832C211.726 48.9099 215.565 45.4907 219.498 42.2033C219.826 41.8701 220.01 41.4213 220.01 40.9538C220.01 40.4863 219.826 40.0375 219.498 39.7044C219.162 39.3821 218.715 39.2021 218.249 39.2021C217.783 39.2021 217.336 39.3821 217 39.7044C213.066 42.9918 209.227 46.411 205.2 49.5836H207.699C205.848 47.977 204.051 46.2998 202.272 44.6138C200.622 43.05 198.119 45.5444 199.773 47.1127Z" fill="white"/>
<path d="M0.0625 190.657C2.16896 166.823 -2.41577 154.208 2.9413 130.889C3.55357 128.261 5.05257 125.925 7.18587 124.273C13.922 119.023 20.1869 116.681 26.8964 111.37C27.4643 110.921 28.0288 110.466 28.5899 110.004C30.3886 108.523 34.8319 108.237 38.0818 107.888C40.6123 118.627 43.4484 129.755 45.63 137.497C50.3421 133.448 53.7562 130.716 58.3129 126.46C60.4716 124.444 63.4152 122.43 66.1541 123.535C67.9948 124.278 69.0793 126.305 69.2133 128.287C69.2362 130.281 68.7938 132.254 67.9212 134.048C63.9174 143.532 58.7782 147.988 54.142 157.179C52.1699 161.09 50.6973 165.232 49.759 169.51C48.6664 174.495 48.3895 178.375 46.8875 181.923C45.2633 187.318 37.7895 193.13 31.5732 200.25L0.0625 190.657Z" fill="#FCE0CD"/>
<path d="M57.9553 142.537C58.7225 143.906 60.5198 147.956 60.8474 148.887C62.0991 152.448 64.1945 158.407 64.2173 160.512C64.2453 163.114 63.6776 165.923 61.6087 167.5C59.5398 169.077 56.1994 168.973 54.5928 166.925L54.4743 166.778L54.6024 167.597C54.9904 170.091 53.6232 174.361 52.7978 175.509C52.4049 176.1 51.8612 176.574 51.2231 176.884C50.585 177.193 49.8757 177.327 49.1688 177.27C47.7426 177.064 46.6654 175.91 45.7481 174.798C44.5814 173.253 43.6507 171.543 42.9863 169.724L57.9553 142.537Z" fill="#FCE0CD"/>
<path d="M22.0725 137.371C24.703 140.232 27.2617 143.157 29.7488 146.146C30.0811 146.476 30.5302 146.661 30.9983 146.661C31.4664 146.661 31.9155 146.476 32.2477 146.146C32.5678 145.809 32.7463 145.362 32.7463 144.897C32.7463 144.432 32.5678 143.984 32.2477 143.647C29.7621 140.659 27.2033 137.735 24.5714 134.872C24.2383 134.544 23.7895 134.36 23.322 134.36C22.8544 134.36 22.4056 134.544 22.0725 134.872C21.7502 135.209 21.5703 135.656 21.5703 136.122C21.5703 136.588 21.7502 137.035 22.0725 137.371Z" fill="#EFC0A0"/>
<path d="M29.4457 142.186C31.8793 139.847 34.0608 137.258 35.9543 134.464C36.4118 133.789 36.8535 133.104 37.2796 132.409C37.7 131.726 38.0549 130.955 38.5423 130.317C39.333 129.282 41.2797 128.964 42.5387 128.724C42.9883 128.596 43.3694 128.296 43.6002 127.89C43.831 127.483 43.893 127.002 43.7727 126.551C43.6399 126.104 43.3395 125.726 42.9343 125.496C42.5292 125.266 42.0508 125.202 41.5993 125.317C39.7947 125.66 37.8266 126.206 36.413 127.441C35.7547 128.104 35.2055 128.867 34.7859 129.701C34.3441 130.448 33.8864 131.184 33.4127 131.91C31.5611 134.739 29.3916 137.348 26.9468 139.684C25.3042 141.263 27.8053 143.76 29.4457 142.183V142.186Z" fill="#EFC0A0"/>
<path d="M103.074 45.2668C108.917 44.0336 135.795 38.3106 145.958 36.1371C146.987 35.9162 148.062 36.1125 148.947 36.683C149.832 37.2534 150.454 38.1514 150.678 39.1801C152.685 48.3834 156.482 65.629 157.319 69.6004C158.604 75.6856 163.565 98.9355 165.893 109.891C166.003 110.402 166.01 110.93 165.915 111.444C165.82 111.958 165.625 112.449 165.34 112.887C165.055 113.326 164.687 113.704 164.256 114C163.825 114.296 163.34 114.504 162.828 114.612C144.034 118.606 65.6927 135.309 47.66 139.153C47.231 139.245 46.7881 139.251 46.3567 139.171C45.9254 139.091 45.5139 138.927 45.146 138.688C44.7781 138.449 44.4609 138.14 44.2126 137.779C43.9643 137.417 43.7897 137.01 43.6989 136.581C41.4599 126.037 36.2626 101.674 34.9374 95.4235C34.1098 91.5021 30.399 74.6424 28.3736 65.3639C28.2613 64.8521 28.2513 64.3231 28.3442 63.8073C28.4371 63.2916 28.6311 62.7993 28.9149 62.3588C29.1987 61.9183 29.5668 61.5383 29.998 61.2405C30.4293 60.9428 30.9151 60.7332 31.4276 60.6239C46.309 57.4299 98.8482 46.1584 103.074 45.2668Z" fill="#BDBDBD"/>
<path d="M32.3231 75.3034C48.3 71.9269 100.324 60.9285 105.407 59.8565C113.316 58.1874 151.084 50.1297 152.983 49.6902C153.508 52.1051 154.047 54.5709 154.561 56.9196C153.638 57.1508 114.95 65.4043 106.934 67.0962C101.202 68.3059 61.8966 76.6257 55.7982 77.9127C51.6014 78.7962 36.6074 81.9769 32.2119 82.9046C31.7024 80.5545 31.1605 78.0835 30.6289 75.6612L32.3231 75.3034Z" fill="#1E0E05"/>
<path d="M35.1355 67.0007C35.8486 66.0119 36.6247 65.0702 37.4592 64.1815C37.5464 64.0888 37.6573 64.0216 37.7799 63.9872C37.9024 63.9528 38.0321 63.9525 38.1548 63.9863C38.2776 64.02 38.3888 64.0866 38.4765 64.1789C38.5642 64.2712 38.6251 64.3856 38.6527 64.5099C38.9391 65.7858 39.3021 67.3511 39.5708 68.5395C39.5995 68.6628 39.594 68.7917 39.555 68.9122C39.5161 69.0327 39.445 69.1403 39.3495 69.2236C39.2541 69.3068 39.1377 69.3625 39.013 69.3846C38.8883 69.4068 38.7599 69.3946 38.6416 69.3493C37.6506 68.9746 36.3408 68.4408 35.4315 68.0543C35.3347 68.0133 35.2483 67.9511 35.1788 67.8723C35.1093 67.7934 35.0584 67.6999 35.03 67.5987C35.0016 67.4975 34.9963 67.3912 35.0146 67.2876C35.0328 67.1841 35.0742 67.086 35.1355 67.0007Z" fill="#1E0E05"/>
<path d="M58.2835 102.919L47.9758 105.106C47.8165 105.14 47.652 105.142 47.4919 105.113C47.3317 105.083 47.179 105.022 47.0426 104.933C46.9062 104.844 46.7886 104.729 46.6968 104.594C46.605 104.46 46.5407 104.308 46.5076 104.149C45.8936 101.231 44.787 95.9588 44.1965 93.1543C44.163 92.9953 44.1611 92.8312 44.1911 92.6715C44.2211 92.5118 44.2823 92.3595 44.3712 92.2235C44.4601 92.0875 44.575 91.9703 44.7093 91.8787C44.8435 91.7872 44.9945 91.723 45.1536 91.6899C47.9279 91.1068 54.5513 89.7138 57.4692 89.099C57.79 89.0309 58.1247 89.093 58.3997 89.2717C58.6748 89.4503 58.8676 89.7309 58.9358 90.0517C59.5204 92.7832 60.7235 98.3715 61.2919 101.013C61.3268 101.173 61.3299 101.337 61.3008 101.498C61.2718 101.658 61.2112 101.811 61.1226 101.948C61.034 102.085 60.9192 102.203 60.7847 102.295C60.6502 102.388 60.4988 102.452 60.3391 102.486L58.2835 102.919Z" fill="#FFEC8C"/>
<path d="M61.5128 110.599L62.1592 113.661C62.2515 113.997 62.4406 114.297 62.703 114.526C62.9654 114.754 63.2893 114.9 63.6341 114.945C63.979 114.99 64.3295 114.932 64.6417 114.779C64.9539 114.626 65.214 114.384 65.3892 114.083C65.6127 113.666 65.6761 113.182 65.5674 112.722L64.921 109.659C64.8287 109.324 64.6396 109.023 64.3772 108.795C64.1149 108.566 63.7909 108.421 63.4461 108.375C63.1012 108.33 62.7507 108.388 62.4385 108.541C62.1263 108.695 61.8663 108.937 61.691 109.237C61.4675 109.654 61.4041 110.139 61.5128 110.599Z" fill="#1E0E05"/>
<path d="M56.5794 111.64L57.2259 114.702C57.3181 115.038 57.5073 115.339 57.7696 115.567C58.032 115.795 58.3559 115.941 58.7008 115.986C59.0457 116.031 59.3962 115.973 59.7084 115.82C60.0206 115.667 60.2806 115.425 60.4559 115.124C60.6794 114.708 60.7427 114.223 60.6341 113.763L59.9876 110.701C59.8959 110.365 59.7068 110.064 59.4443 109.835C59.1818 109.606 58.8575 109.459 58.5121 109.414C58.1667 109.369 57.8157 109.427 57.5032 109.581C57.1906 109.735 56.9305 109.977 56.7554 110.278C56.532 110.695 56.4686 111.18 56.5772 111.64H56.5794Z" fill="#1E0E05"/>
<path d="M51.6458 112.681L52.2923 115.744C52.3845 116.079 52.5737 116.38 52.836 116.608C53.0984 116.836 53.4223 116.982 53.7672 117.027C54.112 117.072 54.4625 117.014 54.7747 116.861C55.087 116.708 55.347 116.466 55.5223 116.166C55.7458 115.749 55.8089 115.264 55.6997 114.804L55.054 111.742C54.9619 111.407 54.7728 111.106 54.5104 110.877C54.2481 110.649 53.9242 110.503 53.5793 110.458C53.2345 110.413 52.8839 110.471 52.5717 110.624C52.2594 110.777 51.9993 111.019 51.824 111.319C51.6002 111.736 51.5368 112.221 51.6458 112.681Z" fill="#1E0E05"/>
<path d="M46.7122 113.722L47.3586 116.785C47.451 117.12 47.6402 117.42 47.9025 117.648C48.1648 117.877 48.4885 118.022 48.8333 118.067C49.178 118.112 49.5283 118.055 49.8404 117.902C50.1525 117.748 50.4125 117.507 50.5879 117.207C50.8124 116.789 50.8758 116.304 50.7661 115.844L50.1204 112.781C50.0281 112.445 49.839 112.145 49.5766 111.916C49.3142 111.688 48.9903 111.542 48.6455 111.497C48.3006 111.452 47.9501 111.51 47.6379 111.663C47.3257 111.817 47.0657 112.059 46.8904 112.359C46.6666 112.776 46.6033 113.26 46.7122 113.72V113.722Z" fill="#1E0E05"/>
<path d="M83.0338 89.2278C78.2186 90.246 73.3592 91.1325 68.5765 92.2892C68.0492 92.4345 67.6013 92.7834 67.3313 93.259C67.0613 93.7346 66.9913 94.298 67.1367 94.8252C67.2821 95.3524 67.6309 95.8003 68.1065 96.0703C68.5821 96.3404 69.1455 96.4104 69.6728 96.265C74.4585 95.1083 79.3178 94.2219 84.1301 93.2036C84.6573 93.0582 85.1052 92.7094 85.3752 92.2337C85.6452 91.7581 85.7152 91.1948 85.5698 90.6675C85.4245 90.1403 85.0756 89.6924 84.6 89.4224C84.1244 89.1524 83.561 89.0824 83.0338 89.2278Z" fill="#1E0E05"/>
<path d="M105.014 84.5901C100.2 85.6076 95.3404 86.494 90.5569 87.6515C90.0297 87.7968 89.5818 88.1457 89.3118 88.6213C89.0418 89.0969 88.9718 89.6603 89.1172 90.1875C89.2625 90.7147 89.6114 91.1626 90.087 91.4326C90.5626 91.7026 91.126 91.7727 91.6532 91.6273C96.439 90.4699 101.298 89.5834 106.111 88.5659C106.372 88.4939 106.616 88.3712 106.83 88.2048C107.043 88.0384 107.222 87.8315 107.356 87.596C107.489 87.3606 107.575 87.101 107.609 86.8323C107.642 86.5636 107.622 86.2909 107.55 86.0298C107.478 85.7688 107.356 85.5244 107.189 85.3108C107.023 85.0972 106.816 84.9184 106.58 84.7847C106.345 84.651 106.085 84.565 105.817 84.5316C105.548 84.4982 105.275 84.5181 105.014 84.5901Z" fill="#1E0E05"/>
<path d="M126.995 79.9515C122.18 80.9691 117.32 81.8563 112.538 83.0129C112.277 83.0849 112.032 83.2075 111.819 83.3739C111.605 83.5402 111.426 83.7471 111.292 83.9825C111.159 84.218 111.073 84.4775 111.039 84.7462C111.006 85.0149 111.026 85.2876 111.098 85.5486C111.169 85.8097 111.292 86.054 111.458 86.2677C111.625 86.4813 111.832 86.6601 112.067 86.7939C112.303 86.9276 112.562 87.0136 112.831 87.0471C113.1 87.0805 113.372 87.0607 113.633 86.9888C118.419 85.8321 123.278 84.9449 128.091 83.9274C128.352 83.8554 128.596 83.7328 128.81 83.5664C129.023 83.4001 129.202 83.1932 129.336 82.9578C129.469 82.7223 129.556 82.4628 129.589 82.1941C129.622 81.9254 129.603 81.6527 129.531 81.3917C129.459 81.1306 129.336 80.8863 129.17 80.6726C129.003 80.459 128.797 80.2802 128.561 80.1464C128.326 80.0127 128.066 79.9267 127.797 79.8932C127.529 79.8598 127.256 79.8796 126.995 79.9515Z" fill="#1E0E05"/>
<path d="M148.788 75.3528C143.973 76.3703 139.114 77.2575 134.33 78.4142C134.069 78.4861 133.825 78.6088 133.611 78.7752C133.398 78.9417 133.219 79.1485 133.085 79.384C132.952 79.6195 132.866 79.879 132.832 80.1478C132.799 80.4165 132.819 80.6892 132.891 80.9502C132.963 81.2113 133.085 81.4556 133.252 81.6692C133.418 81.8829 133.625 82.0616 133.86 82.1953C134.096 82.329 134.355 82.415 134.624 82.4484C134.893 82.4818 135.166 82.462 135.427 82.39C140.212 81.2333 145.072 80.3461 149.884 79.3286C150.411 79.1832 150.859 78.8344 151.129 78.3587C151.399 77.8831 151.469 77.3198 151.324 76.7925C151.178 76.2653 150.83 75.8174 150.354 75.5474C149.878 75.2774 149.315 75.2074 148.788 75.3528Z" fill="#1E0E05"/>
<path d="M146.258 94.3529C148.172 95.8917 150.048 97.4901 152.031 98.9406C152.235 99.0587 152.46 99.1353 152.694 99.1658C152.928 99.1964 153.165 99.1804 153.392 99.1187C153.835 98.9931 154.213 98.7034 154.449 98.3088C154.567 98.1048 154.644 97.8794 154.674 97.6456C154.705 97.4118 154.689 97.1743 154.627 96.9467C154.483 96.5141 154.198 96.1423 153.817 95.8909C153.584 95.7201 153.354 95.5449 153.125 95.3689L153.482 95.645C151.885 94.4103 150.332 93.1211 148.759 91.8562C148.419 91.5377 147.974 91.3545 147.507 91.3408C147.039 91.343 146.59 91.5279 146.256 91.8562C145.926 92.1892 145.74 92.639 145.74 93.1079C145.737 93.3405 145.781 93.5714 145.87 93.7866C145.958 94.0017 146.09 94.1966 146.256 94.3595L146.258 94.3529Z" fill="white"/>
<path d="M136.174 96.0065C140.498 100.041 145.177 103.737 149.766 107.464C150.628 108.164 151.491 108.863 152.371 109.54C152.776 109.774 153.257 109.838 153.71 109.72C154.163 109.601 154.55 109.309 154.789 108.906C155.013 108.499 155.073 108.02 154.955 107.57C154.837 107.12 154.551 106.733 154.155 106.488C154.541 106.783 154.389 106.67 154.149 106.481C154.002 106.364 153.854 106.248 153.707 106.131C153.296 105.802 152.885 105.471 152.476 105.138C151.387 104.255 150.302 103.367 149.221 102.476C146.696 100.397 144.18 98.3051 141.696 96.1766C140.674 95.3019 139.653 94.425 138.67 93.5076C137.008 91.9615 134.503 94.4515 136.171 96.0065H136.174Z" fill="white"/>
<path d="M154.152 16.6083C153.608 18.2487 153.228 19.934 152.769 21.5972C152.707 21.8209 152.69 22.0546 152.719 22.285C152.747 22.5153 152.821 22.7377 152.935 22.9395C153.05 23.1413 153.203 23.3186 153.386 23.4612C153.569 23.6038 153.779 23.709 154.003 23.7707C154.226 23.8324 154.46 23.8494 154.69 23.8207C154.921 23.7921 155.143 23.7184 155.345 23.6038C155.547 23.4892 155.724 23.336 155.867 23.1529C156.009 22.9698 156.114 22.7604 156.176 22.5367C156.636 20.8735 157.016 19.1882 157.56 17.5478C157.681 17.096 157.619 16.6148 157.388 16.2081C157.157 15.8014 156.775 15.5019 156.326 15.3743C155.874 15.2606 155.396 15.3255 154.991 15.5554C154.586 15.7852 154.286 16.1624 154.152 16.6083Z" fill="#1E0E05"/>
<path d="M163.69 21.6437C162.271 22.6222 160.931 23.7053 159.552 24.736C159.166 24.9811 158.879 25.3552 158.742 25.7919C158.62 26.2516 158.684 26.7411 158.92 27.1539C159.155 27.5499 159.533 27.84 159.976 27.9638C160.203 28.0293 160.442 28.0473 160.676 28.0166C160.91 27.986 161.136 27.9074 161.338 27.7857C162.717 26.7549 164.057 25.6696 165.476 24.6933C165.865 24.4513 166.153 24.076 166.286 23.6375C166.408 23.178 166.344 22.6888 166.108 22.2762C165.874 21.8798 165.496 21.5896 165.052 21.4663C164.825 21.4026 164.587 21.3855 164.353 21.4162C164.119 21.4468 163.893 21.5244 163.69 21.6445V21.6437Z" fill="#1E0E05"/>
<path d="M33.6753 146.43C43.7872 143.016 50.51 133.745 58.31 126.46C60.4688 124.444 63.4123 122.43 66.1513 123.535C67.9919 124.278 69.0764 126.305 69.2104 128.287C69.2333 130.281 68.7909 132.254 67.9183 134.048C63.9145 143.532 58.7753 147.988 54.1391 157.179C52.167 161.089 50.6944 165.232 49.7561 169.51C48.6635 174.495 48.3866 178.375 46.8846 181.923C45.2604 187.317 37.7866 193.13 31.5703 200.25L33.6753 146.43Z" fill="#FCE0CD"/>
<path d="M18.8378 147.346C23.1126 146.983 27.1333 149.311 31.4213 148.806C33.6636 148.433 35.8284 147.691 37.8268 146.608C39.9084 145.564 41.8814 144.317 43.717 142.885C44.1103 142.638 44.3947 142.25 44.5125 141.801C44.6303 141.352 44.5725 140.875 44.3509 140.467C44.1122 140.064 43.7246 139.772 43.2721 139.653C42.8195 139.535 42.3384 139.599 41.933 139.833C40.2233 141.167 38.3954 142.342 36.4721 143.343C34.7927 144.201 32.7672 145.199 30.8618 145.327C26.7887 145.601 22.9535 143.464 18.8452 143.811C18.3802 143.823 17.9376 144.013 17.6087 144.342C17.2798 144.671 17.0899 145.114 17.0781 145.579C17.0816 146.046 17.2689 146.494 17.5995 146.824C17.9301 147.155 18.3776 147.342 18.8452 147.346H18.8378Z" fill="#EFC0A0"/>
</g>
<defs>
<clipPath id="clip0_1222_2758">
<rect width="301.875" height="200" fill="white" transform="translate(0.0625 0.25)"/>
</clipPath>
</defs>
</svg>
