<svg width="236" height="201" viewBox="0 0 236 201" fill="none" xmlns="http://www.w3.org/2000/svg">
<g clip-path="url(#clip0_1222_2798)">
<path d="M35.1908 19.3101C33.199 17.3774 31.2175 15.4336 29.2464 13.4785C29.1275 13.3577 28.9859 13.2616 28.8297 13.1957C28.6734 13.1299 28.5057 13.0957 28.3362 13.095C28.1667 13.0943 27.9987 13.1272 27.842 13.1917C27.6853 13.2563 27.5429 13.3512 27.423 13.4711C27.3031 13.5909 27.2082 13.7334 27.1436 13.8901C27.0791 14.0468 27.0462 14.2148 27.0469 14.3843C27.0476 14.5538 27.0818 14.7215 27.1476 14.8778C27.2135 15.034 27.3096 15.1756 27.4304 15.2945C29.3958 17.2546 31.3771 19.1986 33.3743 21.1266C33.4932 21.2474 33.6348 21.3435 33.7911 21.4093C33.9473 21.4752 34.115 21.5094 34.2845 21.5101C34.454 21.5108 34.622 21.4779 34.7787 21.4134C34.9355 21.3488 35.0779 21.2539 35.1977 21.134C35.3176 21.0141 35.4125 20.8717 35.4771 20.715C35.5416 20.5582 35.5745 20.3903 35.5738 20.2208C35.5731 20.0512 35.5389 19.8835 35.4731 19.7273C35.4072 19.5711 35.3111 19.4295 35.1903 19.3106L35.1908 19.3101Z" fill="#CDCDCD"/>
<path d="M43.0061 11.4055C40.3283 13.6527 37.6561 15.9074 34.9894 18.1696C34.5324 18.5549 34.0753 18.9401 33.618 19.3254C33.3797 19.5675 33.2461 19.8936 33.2461 20.2334C33.2461 20.5731 33.3797 20.8992 33.618 21.1413C33.8622 21.3757 34.1876 21.5065 34.526 21.5065C34.8645 21.5065 35.1898 21.3757 35.434 21.1413C37.9926 18.9936 40.5459 16.839 43.0938 14.6774C43.6695 14.1915 44.2456 13.7062 44.8221 13.2215C45.0605 12.9794 45.1942 12.6533 45.1942 12.3135C45.1942 11.9737 45.0605 11.6475 44.8221 11.4055C44.5778 11.1713 44.2525 11.0405 43.9141 11.0405C43.5757 11.0405 43.2503 11.1713 43.0061 11.4055Z" fill="#CDCDCD"/>
<path d="M34.495 0.750089C30.2598 0.717661 26.1273 2.05258 22.7115 4.55646C19.517 6.96929 17.1554 10.3192 15.9564 14.1387C13.5877 21.6707 15.8451 30.7543 22.1657 35.6832C28.4483 40.5827 37.96 41.106 44.8477 37.1338C51.8623 33.0904 54.8506 24.6761 53.6761 16.8991C53.0525 12.9276 51.1903 9.25459 48.3551 6.40438C45.52 3.55417 41.8569 1.67243 37.8888 1.02778C36.766 0.851091 35.6316 0.75827 34.495 0.750089C32.8422 0.742063 32.84 3.31032 34.495 3.31835C38.2088 3.29118 41.8328 4.46034 44.8306 6.6528C47.5608 8.72533 49.572 11.6022 50.5808 14.8782C52.606 21.4171 50.8104 29.2588 45.4486 33.6334C40.2008 37.9139 31.7753 38.3237 25.8795 35.0781C19.7264 31.6923 16.7478 24.377 17.8045 17.5123C18.3153 14.0546 19.8866 10.8408 22.3016 8.31415C24.8287 5.74442 28.1202 4.06244 31.6833 3.52006C32.6139 3.3804 33.5539 3.31296 34.495 3.31835C36.1493 3.31032 36.1493 0.742063 34.495 0.750089Z" fill="#CDCDCD"/>
<path d="M194.372 15.4106C194.372 19.393 194.521 23.3738 194.524 27.3562C194.524 29.2824 194.487 31.2086 194.381 33.131C194.328 34.1077 194.257 35.0827 194.167 36.0562C194.121 36.5623 194.042 37.0728 194.015 37.58C194.01 37.6795 193.955 37.8935 194.032 37.466C194.016 37.5543 194.005 37.6437 193.991 37.7335C193.68 39.6319 193.193 41.5083 192.751 43.3794C192.144 45.953 191.526 48.5251 190.966 51.1094C190.499 53.2624 189.899 55.5385 189.885 57.7553C189.874 59.408 192.442 59.4102 192.453 57.7553C192.457 57.4423 192.477 57.1298 192.513 56.8189C192.523 56.7248 192.534 56.6311 192.546 56.5369C192.585 56.2009 192.503 56.8253 192.553 56.4765C192.589 56.2186 192.629 55.9612 192.672 55.7044C192.856 54.592 193.081 53.4866 193.315 52.3839C193.864 49.799 194.479 47.2281 195.087 44.6566C195.553 42.6855 196.053 40.7133 196.414 38.7175C196.917 35.41 197.141 32.0661 197.084 28.7211C197.126 24.2839 196.939 19.8478 196.938 15.4106C196.938 13.7583 194.37 13.7551 194.37 15.4106H194.372Z" fill="#CDCDCD"/>
<path d="M179.446 64.3931C178.942 64.0662 179.042 63.0164 179.046 62.4215C178.995 61.4889 179.054 60.5535 179.223 59.6349C179.262 59.4616 179.316 59.2917 179.383 59.1271C179.295 59.3256 179.456 59.0287 179.487 58.9736C179.582 58.8061 179.362 59.1341 179.47 58.9843C179.5 58.9441 179.542 58.9147 179.571 58.8773C179.69 58.7168 179.586 58.8489 179.529 58.8917C179.591 58.8452 179.664 58.8104 179.727 58.7649C179.962 58.5953 179.615 58.7794 179.811 58.7237C179.94 58.6873 180.067 58.6563 180.197 58.6269C180.411 58.5787 180.026 58.6269 180.33 58.614C180.502 58.6087 180.673 58.5969 180.845 58.5964C182.67 58.5894 184.495 58.7333 186.323 58.7242C187.532 58.7184 188.74 58.6986 189.948 58.6841C190.193 58.6558 190.439 58.6558 190.684 58.6841C190.674 58.6841 190.504 58.6263 190.526 58.6001C190.469 58.9168 190.462 59.2405 190.504 59.5595C190.535 61.5022 190.558 63.4456 190.561 65.3889L191.845 64.1047C189.848 64.1149 187.845 64.3156 185.853 64.4188C184.748 64.4761 183.643 64.5323 182.538 64.5467C182.007 64.5531 181.475 64.566 180.944 64.5601C180.439 64.5799 179.935 64.5258 179.446 64.3996C179.15 64.2369 178.802 64.1941 178.475 64.2798C178.149 64.3655 177.867 64.5732 177.689 64.8602C177.52 65.155 177.473 65.5044 177.559 65.8331C177.646 66.1618 177.858 66.4434 178.149 66.6174C179.389 67.2059 180.774 67.1321 182.113 67.1203C183.244 67.1107 184.372 67.0668 185.502 67.0079C187.612 66.9009 189.733 66.6869 191.847 66.6757C192.186 66.6708 192.51 66.534 192.749 66.2942C192.989 66.0544 193.126 65.7306 193.131 65.3916C193.131 63.3048 193.103 61.2181 193.067 59.1314C193.045 57.858 192.734 56.6033 191.344 56.2164C190.697 56.095 190.036 56.0647 189.381 56.1266C188.637 56.1362 187.893 56.1469 187.15 56.1538C185.774 56.1661 184.397 56.1736 183.022 56.1217C182.183 56.0902 181.339 55.9997 180.499 56.0399C178.683 56.126 177.301 57.0206 176.783 58.8222C176.481 60.1694 176.378 61.5538 176.479 62.9308C176.508 64.3985 176.854 65.7746 178.149 66.6174C179.54 67.5141 180.829 65.291 179.446 64.3931Z" fill="#CDCDCD"/>
<path d="M190.116 65.6071C190.192 68.0009 190.415 70.3877 190.785 72.7539C191.116 75.3253 191.485 77.8918 191.892 80.4533C192.45 83.9376 193.257 87.3876 193.65 90.897C194.059 95.0074 194.157 99.1427 193.946 103.268C193.939 103.921 193.867 104.573 193.732 105.212C193.698 105.352 193.659 105.491 193.614 105.628C193.487 106.013 193.718 105.467 193.543 105.806C193.49 105.914 193.427 106.018 193.356 106.116C193.57 105.834 193.072 106.391 193.339 106.13C193.306 106.162 192.989 106.305 193.24 106.206C193.124 106.247 193.006 106.279 192.885 106.3C193.146 106.246 192.732 106.317 192.716 106.319C192.58 106.334 192.444 106.349 192.309 106.364C191.642 106.435 190.974 106.493 190.306 106.545C187.28 106.779 184.238 106.895 181.203 106.859C179.913 106.843 178.619 106.805 177.336 106.671C177.203 106.657 177.072 106.643 176.94 106.627C176.535 106.576 177.172 106.687 176.794 106.605C176.668 106.595 176.546 106.559 176.434 106.5C176.323 106.441 176.226 106.359 176.148 106.26C176.044 106.058 176.007 105.828 176.041 105.603C176.054 105 176.041 104.396 176.05 103.793C176.096 99.9555 176.336 96.1245 176.646 92.2994C176.812 90.2592 176.994 88.2207 177.156 86.18C177.268 84.099 177.494 82.0258 177.834 79.9696C178.716 75.3521 180.321 70.9122 181.305 66.3193C181.651 64.7072 179.176 64.0186 178.829 65.6366C177.914 69.9042 176.467 74.0369 175.556 78.3056C174.721 82.2163 174.588 86.2378 174.252 90.2137C173.916 94.1897 173.609 98.17 173.512 102.161C173.484 103.264 173.471 104.368 173.473 105.472C173.441 105.955 173.506 106.44 173.664 106.898C173.823 107.356 174.07 107.778 174.393 108.139C175.449 109.239 177.078 109.244 178.501 109.334C181.67 109.497 184.846 109.474 188.012 109.264C189.447 109.185 190.882 109.085 192.311 108.932C193.707 108.784 194.948 108.524 195.704 107.21C196.478 105.866 196.507 104.144 196.535 102.637C196.579 100.478 196.576 98.3118 196.535 96.1528C196.447 91.6241 195.718 87.2372 194.899 82.7941C193.88 77.5783 193.162 72.3083 192.747 67.0101C192.716 66.5435 192.694 66.0769 192.691 65.6093C192.684 63.957 190.116 63.9538 190.122 65.6093L190.116 65.6071Z" fill="#CDCDCD"/>
<path d="M184.338 66.2001V76.0418C184.338 77.6941 186.906 77.6973 186.906 76.0418V66.2001C186.906 64.5473 184.338 64.5446 184.338 66.2001Z" fill="#CDCDCD"/>
<path d="M180.288 31.0829C180.595 36.2237 181.176 41.3607 181.692 46.4833C181.79 47.4496 181.883 48.4165 182 49.3801C182.01 49.7175 182.148 50.0383 182.387 50.277C182.626 50.5156 182.946 50.6542 183.284 50.6642C183.624 50.6624 183.949 50.5265 184.19 50.2861C184.43 50.0457 184.566 49.7201 184.568 49.3801C183.958 44.3372 183.542 39.2617 183.103 34.2017C183.013 33.1631 182.918 32.1235 182.856 31.0829C182.758 29.4402 180.189 29.429 180.288 31.0829Z" fill="#CDCDCD"/>
<path d="M187.846 40.5045C187.237 43.5639 187.186 46.7068 186.805 49.7967C186.807 50.1367 186.942 50.4623 187.183 50.7027C187.423 50.9432 187.749 51.079 188.089 51.0809C188.427 51.0727 188.749 50.9348 188.988 50.6957C189.227 50.4567 189.365 50.1347 189.373 49.7967C189.73 46.9037 189.791 43.855 190.323 41.1872C190.405 40.8591 190.357 40.5121 190.19 40.2181C190.023 39.924 189.75 39.7055 189.426 39.6077C189.098 39.5205 188.748 39.5655 188.453 39.7332C188.157 39.9009 187.939 40.1778 187.846 40.5045Z" fill="#CDCDCD"/>
<path d="M173.062 15.9525C173.043 17.1437 173.104 18.3348 173.247 19.5176C173.395 21.1704 173.578 22.8205 173.77 24.469C174.169 27.888 174.436 31.3268 174.862 34.742C175.509 39.9187 176.655 45.0252 177.63 50.1457C178.133 52.3572 178.468 54.6035 178.632 56.8654C178.694 58.5129 181.262 58.5209 181.201 56.8654C181.061 54.7938 180.773 52.7348 180.339 50.7043C179.925 48.4432 179.461 46.1922 179.018 43.9364C178.493 41.267 178.001 38.5821 177.592 35.8919C177.084 32.5376 176.889 29.1277 176.49 25.7574C176.266 23.8703 176.047 21.9831 175.868 20.0912C175.692 18.7194 175.612 17.337 175.63 15.9541C175.709 14.3019 173.14 14.3062 173.062 15.9541V15.9525Z" fill="#CDCDCD"/>
<path d="M174.346 17.2366C176.414 17.2195 178.477 17.0323 180.514 16.677C181.418 16.5164 182.261 16.0574 183.167 15.9332C183.748 15.8535 184.378 16.3153 185.101 16.532C185.977 16.729 186.875 16.808 187.771 16.7668C188.678 16.7861 189.585 16.7979 190.492 16.8022C192.213 16.8102 193.938 16.8022 195.657 16.6951C197.299 16.593 197.31 14.0236 195.657 14.1269C193.975 14.2339 192.286 14.2419 190.602 14.2339C189.694 14.2307 188.784 14.2195 187.874 14.2002C187.036 14.2525 186.195 14.1569 185.39 13.9177C184.618 13.6234 183.968 13.2852 183.116 13.3655C182.189 13.5267 181.277 13.7642 180.39 14.0755C179.382 14.2845 178.361 14.4163 177.333 14.4699C176.339 14.5726 175.343 14.6598 174.343 14.6678C172.691 14.6807 172.684 17.2489 174.343 17.2361L174.346 17.2366Z" fill="#CDCDCD"/>
<path d="M196.088 100.671C206.6 100.652 217.112 100.632 227.624 100.613C229.798 100.611 231.972 100.609 234.147 100.608C235.799 100.608 235.802 98.04 234.147 98.04C224.565 98.04 214.984 98.055 205.404 98.085L196.088 98.1032C194.435 98.1064 194.433 100.675 196.088 100.671Z" fill="#CDCDCD"/>
<path d="M224.488 54.0911H220.203C219.864 54.0959 219.54 54.2327 219.3 54.4725C219.061 54.7123 218.924 55.0361 218.919 55.3752C218.919 58.9365 218.925 62.4984 218.914 66.0597C218.919 66.3988 219.056 66.7226 219.296 66.9624C219.535 67.2021 219.859 67.339 220.198 67.3438C221.657 67.3438 223.115 67.385 224.574 67.3866C226.226 67.3866 226.229 64.8184 224.574 64.8184C223.115 64.8184 221.657 64.7777 220.198 64.7756L221.482 66.0597C221.493 62.4984 221.487 58.9365 221.487 55.3752L220.203 56.6593H224.488C226.141 56.6593 226.144 54.0911 224.488 54.0911Z" fill="#CDCDCD"/>
<path d="M234.145 20.7831C224.895 20.7831 215.645 20.772 206.395 20.7499L196.383 20.7371C194.73 20.7371 194.728 23.3053 196.383 23.3053C207.405 23.3199 218.429 23.334 229.454 23.3476C231.018 23.3497 232.582 23.351 234.145 23.3513C235.798 23.3513 235.801 20.7831 234.145 20.7831Z" fill="#CDCDCD"/>
<path d="M230.213 26.4407C220.345 26.4279 210.477 26.4101 200.609 26.3872C199.102 26.3844 197.595 26.3824 196.088 26.3813C194.436 26.3813 194.433 28.9496 196.088 28.9496C204.8 28.9496 213.511 28.9812 222.223 28.9967L230.213 29.0095C231.866 29.0095 231.869 26.4407 230.213 26.4407Z" fill="#CDCDCD"/>
<path d="M234.147 26.4433C232.833 26.4433 231.52 26.4425 230.206 26.4407C229.865 26.4407 229.539 26.576 229.298 26.8168C229.057 27.0576 228.922 27.3842 228.922 27.7248C228.922 28.0654 229.057 28.392 229.298 28.6328C229.539 28.8736 229.865 29.0089 230.206 29.0089C231.519 29.0089 232.833 29.0098 234.147 29.0116C234.487 29.0116 234.814 28.8763 235.055 28.6355C235.296 28.3947 235.431 28.0681 235.431 27.7275C235.431 27.3869 235.296 27.0603 235.055 26.8195C234.814 26.5786 234.487 26.4433 234.147 26.4433Z" fill="#CDCDCD"/>
<path d="M226.636 93.6354C226.636 91.1677 226.624 88.7 226.617 86.2324C226.602 81.0566 226.586 75.881 226.571 70.7056C226.553 64.5732 226.535 58.4413 226.518 52.3099C226.502 46.9894 226.487 41.6691 226.473 36.3493C226.466 33.5483 226.506 30.7424 226.456 27.942C226.456 27.8585 226.456 27.7745 226.456 27.691C226.465 26.0377 223.897 26.0361 223.887 27.691C223.874 30.0592 223.894 32.4279 223.9 34.796C223.914 39.9208 223.928 45.0453 223.943 50.1697C223.96 56.2986 223.978 62.4276 223.996 68.5568C224.012 73.922 224.028 79.2874 224.044 84.6529C224.052 87.5486 224.06 90.4443 224.067 93.34C224.067 93.4385 224.067 93.5369 224.067 93.6354C224.067 95.2882 226.635 95.2908 226.635 93.6354H226.636Z" fill="#CDCDCD"/>
<path d="M231.371 93.6889C231.371 91.2202 231.358 88.752 231.352 86.2838C231.337 81.1066 231.321 75.9296 231.306 70.7527C231.288 64.6175 231.27 58.4838 231.253 52.3517C231.238 47.029 231.223 41.7066 231.208 36.3846C231.2 33.5825 231.241 30.7767 231.19 27.9752C231.19 27.8917 231.19 27.8077 231.19 27.7242C231.2 26.0709 228.631 26.0693 228.622 27.7242C228.608 30.0929 228.629 32.4621 228.634 34.8314C228.648 39.9572 228.662 45.083 228.677 50.2088C228.695 56.3395 228.713 62.4703 228.731 68.6013C228.747 73.9679 228.763 79.3347 228.778 84.7016C228.786 87.598 228.794 90.4945 228.801 93.3909C228.801 93.4893 228.801 93.5878 228.801 93.6868C228.801 95.339 231.37 95.3417 231.37 93.6868L231.371 93.6889Z" fill="#CDCDCD"/>
<path d="M230.294 94.9087C231.578 94.9087 232.862 94.9017 234.146 94.9017C234.487 94.9017 234.813 94.7665 235.054 94.5256C235.295 94.2848 235.43 93.9582 235.43 93.6176C235.43 93.2771 235.295 92.9504 235.054 92.7096C234.813 92.4688 234.487 92.3335 234.146 92.3335C232.862 92.3335 231.578 92.3383 230.294 92.3404C229.953 92.3404 229.627 92.4757 229.386 92.7166C229.145 92.9574 229.01 93.284 229.01 93.6246C229.01 93.9652 229.145 94.2918 229.386 94.5326C229.627 94.7734 229.953 94.9087 230.294 94.9087Z" fill="#CDCDCD"/>
<path d="M195.766 94.9896C205.064 94.9682 214.362 94.9461 223.66 94.9233C225.887 94.9179 228.114 94.9131 230.34 94.9088C231.993 94.9056 231.996 92.3374 230.34 92.3406C221.28 92.3581 212.221 92.3791 203.162 92.4037C200.697 92.4101 198.231 92.416 195.766 92.4214C194.114 92.4251 194.11 94.9934 195.766 94.9896Z" fill="#CDCDCD"/>
<path d="M137.674 40.7592C136.579 39.7895 135.423 38.8901 134.215 38.0662C134.134 38.0069 134.054 37.9512 133.966 37.894C132.291 36.7733 130.486 35.8606 128.591 35.1759C124.703 33.6554 120.56 32.8966 116.386 32.941C109.478 32.8547 102.77 35.2615 97.4921 39.7201C90.5155 45.8764 86.3298 54.4426 87.4053 68.4343C88.9088 78.9385 85.555 90.2645 86.3394 98.9233C86.5668 101.522 87.8617 104.648 91.4594 107.119C91.4594 107.119 103.106 111.223 116.264 111.223C129.423 111.223 142.85 106.358 142.85 106.358C148.459 104.279 148.551 100.749 148.595 98.6959C148.664 96.1694 148.291 93.6504 147.491 91.2528C146.498 87.9611 144.677 81.2777 144.91 69.4611C145.331 66.0506 145.174 61.0966 145.097 59.1918C144.83 52.5892 142.039 45.1284 137.806 40.887C137.766 40.8469 137.719 40.8041 137.671 40.7624" fill="#1E0E05"/>
<path d="M141.06 80.068C142.326 78.4491 143.082 76.4911 143.234 74.4419C143.297 73.4206 143.11 72.3995 142.689 71.467C142.267 70.5346 141.625 69.7191 140.817 69.0913C139.152 67.911 136.643 67.9142 135.183 69.3407C134.314 69.0138 133.184 68.6906 132.316 68.3637C129.003 67.4857 125.233 62.377 123.733 59.424C122.535 57.0269 121.476 54.5626 120.562 52.0435C116.83 56.6546 111.083 60.3015 104.838 62.4262C104.744 62.4565 104.645 62.4623 104.549 62.4429C104.453 62.4236 104.364 62.3798 104.29 62.3157C104.215 62.2517 104.159 62.1696 104.126 62.0774C104.093 61.9852 104.084 61.886 104.101 61.7895C104.372 60.1174 104.549 58.5155 104.663 56.8509C103.2 58.2164 101.686 59.6113 100.154 60.9885C97.4785 63.3898 94.7524 65.7366 92.1397 67.7767C91.4725 68.2454 90.732 68.8335 90.1504 69.262C90.1804 70.2439 90.2547 71.6013 90.4409 73.2086C90.7118 76.039 91.2922 78.8312 92.1718 81.5351C93.0972 84.5191 94.5143 87.3277 96.3645 89.845C97.8398 91.9625 99.6982 93.7853 101.844 95.2191C103.708 96.3968 105.742 97.2795 107.876 97.8361C107.607 98.0684 107.306 98.261 106.983 98.408C105.489 99.0694 104.265 99.5552 103.135 99.9977C102.102 100.403 101.148 100.772 100.139 101.207L100.098 101.223C99.371 103.076 104.762 107.832 110.072 108.467C122.032 109.895 133.694 107.278 140.089 100.756C137.998 99.5894 133.964 96.4899 133.45 95.4486C132.551 93.6474 131.813 91.7703 131.245 89.8391H131.236C132.587 88.3133 133.774 86.6504 134.779 84.8776C137.266 83.8667 139.436 82.2055 141.06 80.068Z" fill="#FCE0CD"/>
<path d="M94.5744 200.417C98.0523 198.551 114.326 189.261 124.484 183.146C124.704 183.013 124.874 182.811 124.969 182.572C125.063 182.333 125.077 182.07 125.008 181.822C124.939 181.574 124.79 181.356 124.586 181.201C124.381 181.045 124.131 180.961 123.873 180.962H88.1934L94.5744 200.417Z" fill="#BDBDBD"/>
<path d="M168.059 161.005C165.8 145.905 164.254 136.511 160.449 122.719C159.098 118.147 156.966 113.843 154.147 109.997C152.755 108.216 151.13 106.629 149.316 105.28C146.787 103.4 144.026 101.852 141.103 100.673C140.968 100.617 140.823 100.588 140.677 100.589C140.531 100.59 140.386 100.622 140.253 100.681C131.361 104.606 122.003 107.258 111.249 106.254C107.655 105.919 102.849 104.381 100.125 101.256C99.9808 101.092 99.7898 100.975 99.5775 100.923C99.3652 100.871 99.142 100.886 98.9384 100.965C96.9523 101.736 95.0539 102.535 93.1095 103.399C91.4304 104.174 89.8629 105.171 88.4492 106.363C86.3712 108.154 84.8271 110.483 83.9868 113.094C82.4176 117.57 81.2097 122.164 80.3747 126.833C79.3206 132.617 78.395 137.662 76.9824 143.35C76.9824 143.35 76.7203 144.42 76.6191 144.949C78.2045 147.823 86.0521 159.118 88.9644 163.025C89.0463 162.906 89.2229 162.626 89.339 162.428C92.5493 157.559 94.6023 152.662 96.9961 147.973C97.9592 149.927 99.0748 151.812 99.9866 153.791C100.541 155.022 100.998 156.294 101.353 157.596C101.423 157.842 101.505 158.083 101.597 158.322C102.194 159.867 102.11 162.498 103.289 165.286C105.946 166.173 127.901 173.704 131.583 174.887C131.815 176.142 131.98 177.409 132.079 178.681C134.774 178.642 147.328 178.443 151.394 178.029C154.6 177.703 157.887 177.631 160.892 176.467C161.714 176.149 162.503 175.75 163.246 175.277C165.278 174.068 166.794 172.152 167.504 169.897C168.158 166.981 168.345 163.98 168.059 161.005Z" fill="#F4693A"/>
<path d="M141.26 137.233C143.16 144.212 144.893 151.233 146.461 158.296C146.819 159.909 149.297 159.226 148.937 157.613C147.37 150.551 145.637 143.53 143.737 136.55C143.303 134.957 140.825 135.633 141.26 137.233Z" fill="#F4693A"/>
<path d="M131.755 159.594C138.681 160.213 145.72 159.46 152.642 159.078C154.285 158.988 154.296 156.419 152.642 156.51C145.722 156.892 138.681 157.645 131.755 157.025C131.415 157.028 131.09 157.164 130.849 157.404C130.609 157.645 130.473 157.97 130.471 158.31C130.478 158.648 130.615 158.971 130.855 159.21C131.094 159.449 131.416 159.587 131.755 159.594Z" fill="#F4693A"/>
<path d="M92.2769 128.847C92.549 130.224 92.6936 131.624 92.7087 133.028C92.8157 134.554 92.8981 136.082 93.0297 137.607C93.2073 140.678 93.8596 143.702 94.9634 146.573C95.0633 146.895 95.2822 147.167 95.5757 147.334C95.8691 147.501 96.2149 147.549 96.5429 147.47C96.8701 147.377 97.1478 147.16 97.3157 146.864C97.4837 146.569 97.5284 146.219 97.4402 145.89C96.3522 143.083 95.7167 140.122 95.5573 137.115C95.4396 135.631 95.362 134.144 95.2507 132.659C95.222 131.149 95.0556 129.644 94.7537 128.165C94.3299 126.568 91.852 127.246 92.2774 128.847L92.2769 128.847Z" fill="#F4693A"/>
<path d="M171.721 175.825C173.891 175.825 176.061 175.813 178.231 175.807L192.578 175.763L209.878 175.71L225.247 175.663C228.1 175.655 230.952 175.648 233.802 175.641H234.146C235.799 175.641 235.801 173.072 234.146 173.072C231.688 173.072 229.23 173.083 226.771 173.09L211.98 173.135L194.654 173.188L179.678 173.235C177.099 173.242 174.514 173.197 171.935 173.257C171.863 173.257 171.792 173.257 171.721 173.257C170.068 173.257 170.066 175.826 171.721 175.826L171.721 175.825Z" fill="#CDCDCD"/>
<path d="M1.80855 175.824C6.48011 175.819 11.1501 175.644 15.8216 175.642C17.4744 175.642 17.4771 173.073 15.8216 173.073C11.1501 173.073 6.48011 173.251 1.80855 173.256C0.156301 173.256 0.153626 175.824 1.80855 175.824Z" fill="#CDCDCD"/>
<path d="M15.9984 144.894C18.5768 159.988 21.2986 175.722 24.7695 195.645C24.8524 196.125 25.0913 196.564 25.4492 196.895C25.8071 197.226 26.264 197.429 26.7492 197.473C38.7232 198.539 79.2182 200.293 93.2987 200.748C93.6269 200.759 93.9532 200.696 94.254 200.564C94.5547 200.432 94.8224 200.235 95.0374 199.987C95.2524 199.739 95.4093 199.446 95.4968 199.129C95.5843 198.813 95.6002 198.481 95.5433 198.158C92.0772 178.317 89.3232 162.39 86.7122 147.087C86.5882 146.357 86.2153 145.692 85.6568 145.206C85.0983 144.72 84.3887 144.442 83.6485 144.419C72.1004 144.07 29.4213 142.682 18.2413 142.322C17.9148 142.311 17.5899 142.373 17.2903 142.503C16.9907 142.633 16.7239 142.829 16.5091 143.075C16.2944 143.321 16.1372 143.612 16.0488 143.927C15.9605 144.241 15.9432 144.571 15.9984 144.894Z" fill="#ECECEC"/>
<path d="M97.8673 176.711C97.8646 176.649 97.864 176.587 97.8673 176.528C97.8822 175.915 98.1151 175.327 98.5243 174.869L98.9984 174.268L98.382 174.398C97.9331 174.505 97.4622 174.477 97.0295 174.316C96.5968 174.155 96.2219 173.868 95.9528 173.493C95.5034 172.83 95.787 171.712 95.9849 171.31C96.3084 170.769 96.7105 170.278 97.1781 169.855C97.7185 169.32 100.062 167.527 100.672 167.083C103.105 165.308 105.676 163.73 108.361 162.364C110.538 161.257 112.978 160.272 115.359 160.786C118.398 161.444 119.871 162.786 122.889 163.525C125.014 164.048 126.411 163.562 128.2 163.515C129.954 166.893 131.028 171.497 131.592 174.842C131.391 174.93 131.205 175.052 131.042 175.2C130.279 175.521 128.348 176.718 126.126 177.639C125.135 178.048 124.072 178.255 123 178.251C121.927 178.246 120.867 178.029 119.879 177.612C118.136 179.55 116.229 181.335 114.181 182.947C113.8 183.253 112.537 184.182 111.506 183.308C110.829 182.734 110.987 181.421 111.321 180.909C112.926 178.444 113.612 176.616 115.391 174.345C112.442 176.177 109.606 178.321 106.669 180.181C105.714 180.786 104.918 181.311 103.804 181.116C103.304 181.037 102.852 180.775 102.534 180.381C102.215 179.987 102.055 179.489 102.082 178.984C102.141 178.444 102.337 177.928 102.653 177.486L101.768 177.897C101.229 178.174 100.65 178.366 100.051 178.466C99.7446 178.512 99.4315 178.49 99.134 178.403C98.8365 178.315 98.5617 178.163 98.329 177.958C98.0432 177.604 97.881 177.166 97.8673 176.711Z" fill="#FCE0CD"/>
<path d="M107.173 166.588C105.518 167.582 103.937 168.706 102.388 169.856C100.87 170.915 99.4361 172.09 98.0992 173.371C97.8616 173.612 97.7291 173.938 97.7305 174.277C97.7319 174.615 97.867 174.94 98.1066 175.179C98.3461 175.419 98.6706 175.554 99.0094 175.555C99.3481 175.557 99.6737 175.424 99.9152 175.187C100.455 174.652 101.024 174.147 101.619 173.674C101.978 173.381 102.34 173.093 102.707 172.81C102.519 172.956 102.797 172.742 102.834 172.713C102.933 172.638 103.032 172.562 103.131 172.488C103.348 172.323 103.566 172.16 103.786 171.998C105.303 170.875 106.851 169.778 108.469 168.806C108.615 168.721 108.742 168.608 108.844 168.473C108.946 168.339 109.02 168.186 109.063 168.023C109.106 167.859 109.116 167.69 109.093 167.522C109.07 167.355 109.015 167.194 108.93 167.049C108.844 166.903 108.731 166.776 108.597 166.674C108.463 166.572 108.31 166.498 108.146 166.455C107.983 166.412 107.813 166.402 107.646 166.425C107.479 166.448 107.318 166.503 107.173 166.588Z" fill="#FCE0CD"/>
<path d="M111.372 169.242C109.809 170.225 108.292 171.276 106.786 172.346C106.025 172.886 105.266 173.428 104.503 173.966C103.691 174.493 102.949 175.121 102.295 175.833C102.062 176.078 101.932 176.403 101.932 176.741C101.932 177.079 102.062 177.404 102.295 177.649C102.537 177.887 102.863 178.021 103.203 178.021C103.542 178.021 103.868 177.887 104.111 177.649C104.645 177.047 105.26 176.521 105.938 176.085C106.698 175.55 107.454 175.008 108.213 174.47C109.676 173.434 111.15 172.416 112.668 171.462C112.962 171.29 113.176 171.009 113.263 170.679C113.349 170.35 113.301 170 113.129 169.705C112.957 169.411 112.676 169.198 112.346 169.111C112.017 169.025 111.666 169.073 111.372 169.245V169.242Z" fill="#FCE0CD"/>
<path d="M108.664 78.2174C108.486 78.6572 108.332 79.1067 108.204 79.5636C107.98 80.3255 107.71 81.2838 108.348 81.9285C108.489 82.0632 108.647 82.1779 108.819 82.2693C108.993 82.3648 109.179 82.4368 109.373 82.4833C109.634 82.5281 109.899 82.5461 110.164 82.5368C110.504 82.5336 110.83 82.3995 111.074 82.1623C111.314 81.9215 111.45 81.5949 111.45 81.2543C111.45 80.9138 111.314 80.5872 111.074 80.3463C110.829 80.111 110.504 79.9772 110.164 79.9718C110.025 79.9793 109.886 79.9782 109.747 79.9686L110.088 80.0146C110.018 80.0025 109.949 79.9833 109.883 79.9574L110.19 80.0868C110.091 80.0428 109.999 79.9873 109.914 79.9215L110.174 80.1221C110.17 80.1195 110.167 80.1165 110.164 80.1131L110.365 80.3726C110.361 80.3662 110.357 80.3594 110.353 80.3522L110.483 80.6594C110.477 80.6436 110.474 80.6273 110.472 80.6107L110.517 80.952C110.512 80.8847 110.515 80.817 110.525 80.7503L110.48 81.0917C110.548 80.6811 110.651 80.2772 110.79 79.8846C110.897 79.5529 111.004 79.2184 111.138 78.8979C111.184 78.7327 111.196 78.56 111.174 78.39C111.152 78.22 111.096 78.0561 111.009 77.9081C110.924 77.7624 110.811 77.635 110.677 77.533C110.543 77.431 110.389 77.3565 110.226 77.3137C110.063 77.2709 109.893 77.2607 109.726 77.2837C109.559 77.3066 109.398 77.3622 109.252 77.4474L108.992 77.6486C108.835 77.8057 108.721 78.001 108.662 78.2152L108.664 78.2174Z" fill="#EFC0A0"/>
<path d="M99.0511 72.5799C98.6872 73.7195 98.8499 76.3616 100.927 76.6265C103.68 76.6623 103.897 73.4766 103.004 71.9592C102.272 70.7168 100.052 70.163 99.0511 72.5799Z" fill="#1E0E05"/>
<path d="M122.677 72.6763C123.021 73.8818 122.724 76.632 120.45 76.8193C117.451 76.739 117.361 73.4046 118.403 71.8593C119.256 70.5944 121.697 70.1113 122.677 72.6763Z" fill="#1E0E05"/>
<path d="M107.493 89.591C108.764 89.9843 110.103 90.1066 111.425 89.95C112.897 89.8342 114.331 89.4258 115.643 88.7488C115.935 88.5748 116.147 88.2931 116.233 87.9645C116.319 87.6359 116.273 87.2865 116.104 86.9917C115.927 86.7031 115.645 86.494 115.318 86.4081C114.991 86.3223 114.643 86.3663 114.347 86.531C114.229 86.5947 114.111 86.6562 113.99 86.7135C113.987 86.7135 113.695 86.8467 113.863 86.7739C114.013 86.7081 113.803 86.7964 113.776 86.8071C113.494 86.9141 113.208 87.0085 112.916 87.0902C112.617 87.1726 112.315 87.2416 112.01 87.2972C111.938 87.3106 111.866 87.3229 111.793 87.3347C111.765 87.3395 111.53 87.3769 111.691 87.3523C111.852 87.3277 111.617 87.3609 111.589 87.3641C111.498 87.3748 111.407 87.3839 111.315 87.3919C110.73 87.4461 110.142 87.4507 109.556 87.4058C109.472 87.3994 109.387 87.3903 109.303 87.3823C109.079 87.3614 109.345 87.3957 109.348 87.3909C109.219 87.3781 109.091 87.3563 108.966 87.3256C108.698 87.2726 108.434 87.202 108.176 87.1142C107.847 87.026 107.498 87.0706 107.202 87.2385C106.906 87.4063 106.689 87.6839 106.596 88.011C106.514 88.3391 106.561 88.6865 106.728 88.9807C106.895 89.275 107.169 89.4936 107.493 89.591Z" fill="#EFC0A0"/>
</g>
<defs>
<clipPath id="clip0_1222_2798">
<rect width="234.863" height="200" fill="white" transform="translate(0.568359 0.75)"/>
</clipPath>
</defs>
</svg>
